<?xml version="1.0" encoding="UTF-8" standalone="no"?>
<!-- Created with Inkscape (http://www.inkscape.org/) -->

<svg
   width="60"
   height="60"
   viewBox="0 0 15.875 15.875"
   version="1.1"
   id="svg1497"
   xmlns="http://www.w3.org/2000/svg"
   xmlns:svg="http://www.w3.org/2000/svg">
  <defs
     id="defs1494" />
  <g
     id="layer1">
    <g
       id="prefix__グループ_715"
       data-name="グループ 715"
       style="fill:#ffffff"
       transform="scale(0.27081201)">
      <path
         id="prefix__パス_611"
         d="m 1129.437,363.825 c -0.3,0.041 -0.661,0.31 -0.59,0.616 0.027,0.221 0.437,0.4 0.68,0.381 a 0.50052697,0.50052697 0 1 0 -0.09,-0.997 z"
         class="prefix__cls-1"
         data-name="パス 611"
         transform="translate(-1112.174,-329.79)"
         style="fill:#ffffff" />
      <path
         id="prefix__パス_612"
         d="m 1129.8,365.228 h -0.588 l -0.7,1.086 v -1.086 h -0.548 v 2.7 h 0.548 v -0.794 l 0.2,-0.314 0.547,1.108 h 0.608 l -0.808,-1.539 z"
         class="prefix__cls-1"
         data-name="パス 612"
         transform="translate(-1113.317,-327.962)"
         style="fill:#ffffff" />
      <path
         id="prefix__パス_613"
         d="m 1129.874,366.279 -0.357,-1.05 h -0.615 l 0.7,1.643 v 1.059 h 0.545 v -1.059 l 0.7,-1.643 h -0.595 z"
         class="prefix__cls-1"
         data-name="パス 613"
         transform="translate(-1112.096,-327.962)"
         style="fill:#ffffff" />
      <path
         id="prefix__パス_614"
         d="m 1131.551,365.6 a 0.752,0.752 0 0 0 -0.287,-0.283 0.906,0.906 0 0 0 -0.48,-0.108 1,1 0 0 0 -0.488,0.108 0.627,0.627 0 0 0 -0.278,0.283 1.285,1.285 0 0 0 -0.126,0.457 4.177,4.177 0 0 0 -0.035,0.565 4.037,4.037 0 0 0 0.035,0.556 1.289,1.289 0 0 0 0.126,0.45 0.641,0.641 0 0 0 0.278,0.278 1.061,1.061 0 0 0 0.488,0.1 0.96,0.96 0 0 0 0.48,-0.1 0.775,0.775 0 0 0 0.287,-0.278 1.406,1.406 0 0 0 0.124,-0.45 c 0.016,-0.156 0.023,-0.359 0.023,-0.556 0,-0.197 -0.01,-0.4 -0.023,-0.565 a 1.4,1.4 0 0 0 -0.124,-0.457 z m -0.409,1.475 a 1.462,1.462 0 0 1 -0.05,0.31 0.356,0.356 0 0 1 -0.11,0.177 0.347,0.347 0 0 1 -0.2,0.058 0.32,0.32 0 0 1 -0.191,-0.058 0.289,0.289 0 0 1 -0.117,-0.177 0.9,0.9 0 0 1 -0.053,-0.31 3.311,3.311 0 0 1 -0.018,-0.453 3.44,3.44 0 0 1 0.018,-0.467 1.007,1.007 0 0 1 0.053,-0.317 0.346,0.346 0 0 1 0.117,-0.177 0.319,0.319 0 0 1 0.191,-0.044 0.347,0.347 0 0 1 0.2,0.044 0.451,0.451 0 0 1 0.11,0.177 1.688,1.688 0 0 1 0.05,0.317 c 0,0.126 0.025,0.273 0.025,0.467 0,0.194 -0.022,0.327 -0.025,0.451 z"
         class="prefix__cls-1"
         data-name="パス 614"
         transform="translate(-1110.851,-327.99)"
         style="fill:#ffffff" />
      <path
         id="prefix__パス_615"
         d="m 1130.781,365.682 h 0.6 v 2.248 h 0.547 v -2.248 h 0.586 v -0.453 h -1.73 z"
         class="prefix__cls-1"
         data-name="パス 615"
         transform="translate(-1109.652,-327.962)"
         style="fill:#ffffff" />
      <path
         id="prefix__パス_616"
         d="m 1133.311,365.6 a 0.678,0.678 0 0 0 -0.274,-0.283 0.97,0.97 0 0 0 -0.485,-0.108 1.06,1.06 0 0 0 -0.508,0.108 0.732,0.732 0 0 0 -0.264,0.283 1.164,1.164 0 0 0 -0.122,0.457 3.3,3.3 0 0 0 -0.032,0.565 3.192,3.192 0 0 0 0.032,0.556 1.163,1.163 0 0 0 0.122,0.45 0.754,0.754 0 0 0 0.264,0.278 1.125,1.125 0 0 0 0.508,0.1 1.028,1.028 0 0 0 0.485,-0.1 0.7,0.7 0 0 0 0.274,-0.278 1.349,1.349 0 0 0 0.124,-0.45 2.8,2.8 0 0 0 0.034,-0.556 2.9,2.9 0 0 0 -0.034,-0.565 1.343,1.343 0 0 0 -0.124,-0.457 z m -0.4,1.475 a 1.087,1.087 0 0 1 -0.058,0.31 0.273,0.273 0 0 1 -0.126,0.177 0.258,0.258 0 0 1 -0.177,0.058 0.346,0.346 0 0 1 -0.207,-0.058 0.524,0.524 0 0 1 -0.113,-0.177 2.454,2.454 0 0 1 -0.051,-0.31 c 0,-0.124 -0.014,-0.273 -0.014,-0.453 0,-0.18 0.014,-0.34 0.014,-0.467 a 3.043,3.043 0 0 1 0.051,-0.317 0.773,0.773 0 0 1 0.113,-0.177 0.351,0.351 0 0 1 0.207,-0.044 0.259,0.259 0 0 1 0.177,0.044 0.322,0.322 0 0 1 0.126,0.177 1.233,1.233 0 0 1 0.058,0.317 v 0.919 z"
         class="prefix__cls-1"
         data-name="パス 616"
         transform="translate(-1108.556,-327.99)"
         style="fill:#ffffff" />
      <path
         id="prefix__パス_617"
         d="m 1137.4,367.161 a 0.866,0.866 0 0 1 -0.055,0.324 0.188,0.188 0 0 1 -0.193,0.1 0.2,0.2 0 0 1 -0.2,-0.1 0.84,0.84 0 0 1 -0.048,-0.324 v -0.081 h -0.482 v 0.117 a 1.582,1.582 0 0 0 0.019,0.3 0.526,0.526 0 0 0 0.108,0.255 0.584,0.584 0 0 0 0.218,0.161 0.938,0.938 0 0 0 0.354,0.06 0.9,0.9 0 0 0 0.618,-0.184 0.834,0.834 0 0 0 0.193,-0.616 v -1.946 h -0.533 z"
         class="prefix__cls-1"
         data-name="パス 617"
         transform="translate(-1102.324,-327.961)"
         style="fill:#ffffff" />
      <path
         id="prefix__パス_618"
         d="m 1137.946,365.229 -0.719,2.7 h 0.565 l 0.12,-0.565 h 0.728 l 0.122,0.565 h 0.563 l -0.717,-2.7 z m 0.062,1.691 0.264,-1.22 h 0.01 l 0.266,1.22 z"
         class="prefix__cls-1"
         data-name="パス 618"
         transform="translate(-1101.287,-327.961)"
         style="fill:#ffffff" />
      <path
         id="prefix__パス_619"
         d="m 1139.929,365.739 a 0.453,0.453 0 0 0 -0.12,-0.255 0.718,0.718 0 0 0 -0.225,-0.188 0.9,0.9 0 0 0 -0.354,-0.067 h -0.961 v 2.7 h 0.556 v -1.071 h 0.287 a 1.218,1.218 0 0 0 0.352,-0.046 0.888,0.888 0 0 0 0.278,-0.152 0.762,0.762 0 0 0 0.175,-0.253 0.882,0.882 0 0 0 0.055,-0.363 0.745,0.745 0 0 0 -0.043,-0.305 z m -0.609,0.62 a 0.323,0.323 0 0 1 -0.257,0.1 h -0.237 v -0.827 h 0.23 a 0.34,0.34 0 0 1 0.287,0.108 0.492,0.492 0 0 1 0.08,0.315 0.376,0.376 0 0 1 -0.103,0.305 z"
         class="prefix__cls-1"
         data-name="パス 619"
         transform="translate(-1099.934,-327.961)"
         style="fill:#ffffff" />
      <path
         id="prefix__パス_620"
         d="m 1139.726,365.229 -0.715,2.7 h 0.575 l 0.117,-0.565 h 0.719 l 0.131,0.565 h 0.567 l -0.728,-2.7 z m 0.08,1.691 0.259,-1.22 0.264,1.22 z"
         class="prefix__cls-1"
         data-name="パス 620"
         transform="translate(-1098.972,-327.961)"
         style="fill:#ffffff" />
      <path
         id="prefix__パス_621"
         d="m 1141.351,367.086 -0.673,-1.858 h -0.626 v 2.7 h 0.5 v -1.885 l 0.644,1.885 h 0.644 v -2.7 h -0.5 z"
         class="prefix__cls-1"
         data-name="パス 621"
         transform="translate(-1097.621,-327.962)"
         style="fill:#ffffff" />
      <path
         id="prefix__パス_622"
         d="m 1133.349,368.22 a 0.183,0.183 0 0 0 0.186,-0.188 v -1.682 h 1.42 v 1.682 a 0.188,0.188 0 0 0 0.188,0.188 0.191,0.191 0 0 0 0.2,-0.188 v -1.682 h 1.638 v 1.682 a 0.2,0.2 0 0 0 0.2,0.188 0.187,0.187 0 0 0 0.186,-0.188 v -1.682 h 1.416 v 1.682 a 0.186,0.186 0 0 0 0.188,0.188 0.19,0.19 0 0 0 0.2,-0.188 v -1.875 a 0.2,0.2 0 0 0 -0.2,-0.2 h -2.615 v -0.83 a 0.2,0.2 0 0 0 -0.188,-0.193 0.2,0.2 0 0 0 -0.193,0.193 v 0.83 h -2.633 a 0.2,0.2 0 0 0 -0.193,0.2 v 1.875 a 0.186,0.186 0 0 0 0.2,0.188 z"
         class="prefix__cls-1"
         data-name="パス 622"
         transform="translate(-1106.57,-328.346)"
         style="fill:#ffffff" />
      <path
         id="prefix__パス_623"
         d="m 1133.338,369.083 h 1.165 a 0.186,0.186 0 0 0 0.193,-0.184 0.193,0.193 0 0 0 -0.193,-0.184 h -0.972 v -0.43 h 0.972 a 0.2,0.2 0 0 0 0.193,-0.188 0.194,0.194 0 0 0 -0.193,-0.193 h -0.972 v -0.466 h 0.972 a 0.2,0.2 0 0 0 0.193,-0.2 0.2,0.2 0 0 0 -0.193,-0.186 h -0.972 v -0.308 a 0.191,0.191 0 0 0 -0.193,-0.193 0.2,0.2 0 0 0 -0.191,0.193 v 2.156 a 0.183,0.183 0 0 0 0.191,0.183 z"
         class="prefix__cls-1"
         data-name="パス 623"
         transform="translate(-1106.583,-326.243)"
         style="fill:#ffffff" />
      <path
         id="prefix__パス_624"
         d="m 1136.465,366.553 a 0.192,0.192 0 0 0 -0.2,0.193 v 0.308 h -0.965 a 0.189,0.189 0 0 0 -0.188,0.186 0.191,0.191 0 0 0 0.188,0.2 h 0.965 v 0.466 h -0.965 a 0.186,0.186 0 0 0 -0.188,0.193 0.191,0.191 0 0 0 0.188,0.188 h 0.965 v 0.43 h -0.965 a 0.184,0.184 0 0 0 -0.188,0.184 0.179,0.179 0 0 0 0.188,0.184 h 1.163 a 0.18,0.18 0 0 0 0.184,-0.184 v -2.153 a 0.194,0.194 0 0 0 -0.182,-0.195 z"
         class="prefix__cls-1"
         data-name="パス 624"
         transform="translate(-1104.03,-326.243)"
         style="fill:#ffffff" />
      <path
         id="prefix__パス_625"
         d="m 1136.066,367.864 a 0.2,0.2 0 0 0 -0.092,-0.161 l -0.595,-0.413 0.595,-0.416 a 0.19013811,0.19013811 0 0 0 -0.207,-0.319 l -0.715,0.5 -0.728,-0.5 a 0.19318709,0.19318709 0 0 0 -0.218,0.319 l 0.588,0.416 -0.588,0.413 a 0.206,0.206 0 0 0 -0.085,0.161 0.178,0.178 0 0 0 0.085,0.154 l 0.6,0.425 -0.6,0.414 a 0.2,0.2 0 0 0 -0.051,0.26 0.177,0.177 0 0 0 0.168,0.09 0.2,0.2 0 0 0 0.1,-0.025 l 0.728,-0.5 0.715,0.5 a 0.177,0.177 0 0 0 0.094,0.025 0.17,0.17 0 0 0 0.168,-0.09 0.188,0.188 0 0 0 -0.055,-0.26 l -0.595,-0.414 0.595,-0.425 a 0.174,0.174 0 0 0 0.093,-0.154 z m -1.014,0.342 -0.487,-0.342 0.487,-0.345 0.485,0.345 z"
         class="prefix__cls-1"
         data-name="パス 625"
         transform="translate(-1105.448,-326.281)"
         style="fill:#ffffff" />
      <path
         id="prefix__パス_626"
         d="m 1138.978,367.916 h -5.629 a 0.2,0.2 0 0 0 -0.193,0.2 v 3.235 a 0.186,0.186 0 0 0 0.193,0.188 0.183,0.183 0 0 0 0.186,-0.188 V 368.3 h 5.255 v 3.008 a 0.186,0.186 0 0 0 0.188,0.188 0.19,0.19 0 0 0 0.2,-0.188 v -3.192 a 0.2,0.2 0 0 0 -0.2,-0.2 z"
         class="prefix__cls-1"
         data-name="パス 626"
         transform="translate(-1106.57,-324.474)"
         style="fill:#ffffff" />
      <path
         id="prefix__パス_627"
         d="m 1137.86,368.232 a 0.185,0.185 0 0 0 -0.184,0.186 v 1.489 h -1.689 v -0.453 h 1.108 a 0.181,0.181 0 0 0 0.2,-0.188 v -0.848 a 0.182,0.182 0 0 0 -0.2,-0.186 h -2.617 a 0.194,0.194 0 0 0 -0.2,0.186 v 0.848 a 0.193,0.193 0 0 0 0.2,0.188 h 1.121 v 0.453 h -1.7 v -1.489 a 0.187,0.187 0 0 0 -0.193,-0.186 0.194,0.194 0 0 0 -0.189,0.186 v 1.682 a 0.2,0.2 0 0 0 0.189,0.188 h 1.889 v 0.453 h -1.962 a 0.2,0.2 0 0 0 -0.191,0.193 0.186,0.186 0 0 0 0.191,0.188 h 2.162 a 0.192,0.192 0 0 0 0.188,-0.188 v -0.646 h 1.873 a 0.191,0.191 0 0 0 0.188,-0.188 v -1.687 a 0.186,0.186 0 0 0 -0.184,-0.181 z m -3.205,0.841 v -0.464 h 2.256 v 0.464 z"
         class="prefix__cls-1"
         data-name="パス 627"
         transform="translate(-1106.194,-324.064)"
         style="fill:#ffffff" />
      <path
         id="prefix__パス_628"
         d="m 1150.9,349.01 a 29.31,29.31 0 1 0 29.306,29.311 29.322,29.322 0 0 0 -29.306,-29.311 z m 20.257,49.563 a 28.633,28.633 0 1 1 8.392,-20.253 28.572,28.572 0 0 1 -8.388,20.253 z"
         class="prefix__cls-1"
         data-name="パス 628"
         transform="translate(-1121.586,-349.01)"
         style="fill:#ffffff" />
      <path
         id="prefix__パス_629"
         d="m 1150.021,349.686 a 27.762,27.762 0 1 0 27.771,27.757 27.755,27.755 0 0 0 -27.771,-27.757 z m 19.339,47.086 a 27.349,27.349 0 1 1 8,-19.329 27.281,27.281 0 0 1 -8.001,19.329 z"
         class="prefix__cls-1"
         data-name="パス 629"
         transform="translate(-1120.71,-348.133)"
         style="fill:#ffffff" />
      <path
         id="prefix__パス_630"
         d="m 1127.618,363.4 -1.526,-0.13 -0.637,-0.781 2.363,-1.4 0.06,-0.785 -2.8,1.714 -1.642,-2.042 -0.074,0.839 1.992,2.4 -2.172,-0.175 -0.038,0.592 4.429,0.368 z"
         class="prefix__cls-1"
         data-name="パス 630"
         transform="translate(-1119.562,-334.79)"
         style="fill:#ffffff" />
      <path
         id="prefix__パス_631"
         d="m 1128.144,361.186 0.177,-0.579 -1.725,-0.507 -2.06,-2.383 -0.2,0.682 1.678,1.835 -2.412,0.61 -0.213,0.673 3.036,-0.848 z"
         class="prefix__cls-1"
         data-name="パス 631"
         transform="translate(-1119.249,-337.71)"
         style="fill:#ffffff" />
      <path
         id="prefix__パス_632"
         d="m 1125.751,359.935 a 2.507,2.507 0 0 0 1.689,0.354 2.259,2.259 0 0 0 1.574,-2.93 2.79,2.79 0 0 0 -1.22,-1.252 2.375,2.375 0 0 0 -1.528,-0.368 2.009,2.009 0 0 0 -1.516,1.149 1.98,1.98 0 0 0 -0.131,1.893 2.609,2.609 0 0 0 1.132,1.154 z m -0.517,-2.81 a 1.367,1.367 0 0 1 0.97,-0.745 1.876,1.876 0 0 1 1.3,0.269 2.434,2.434 0 0 1 0.967,0.956 1.236,1.236 0 0 1 -0.078,1.289 1.385,1.385 0 0 1 -1.036,0.8 2.373,2.373 0 0 1 -2.27,-1.36 1.456,1.456 0 0 1 0.146,-1.209 z"
         class="prefix__cls-1"
         data-name="パス 632"
         transform="translate(-1117.888,-340.3)"
         style="fill:#ffffff" />
      <path
         id="prefix__パス_633"
         d="m 1126.926,355.61 2.9,2.634 0.417,-0.462 -2.922,-2.625 1.005,-1.113 -0.375,-0.355 -2.432,2.679 0.393,0.355 z"
         class="prefix__cls-1"
         data-name="パス 633"
         transform="translate(-1116.478,-342.937)"
         style="fill:#ffffff" />
      <path
         id="prefix__パス_634"
         d="m 1129.322,357.159 a 2.084,2.084 0 0 0 1.707,-0.386 2.023,2.023 0 0 0 0.915,-1.629 2.853,2.853 0 0 0 -1.776,-2.615 2.045,2.045 0 0 0 -1.875,0.4 1.974,1.974 0 0 0 -0.91,1.666 2.752,2.752 0 0 0 0.537,1.521 2.568,2.568 0 0 0 1.402,1.043 z m -0.687,-3.819 a 1.421,1.421 0 0 1 1.19,-0.269 1.948,1.948 0 0 1 1.071,0.8 2.439,2.439 0 0 1 0.474,1.278 1.237,1.237 0 0 1 -0.607,1.14 1.354,1.354 0 0 1 -1.268,0.287 1.992,1.992 0 0 1 -1.043,-0.79 2.15,2.15 0 0 1 -0.466,-1.39 1.471,1.471 0 0 1 0.649,-1.056 z"
         class="prefix__cls-1"
         data-name="パス 634"
         transform="translate(-1114.063,-344.554)"
         style="fill:#ffffff" />
      <path
         id="prefix__パス_635"
         d="m 1131.693,355.394 a 1.561,1.561 0 0 0 1.7,0.342 1.6,1.6 0 0 0 1.248,-1.225 3.242,3.242 0 0 0 -0.143,-1.275 l -0.747,-2.4 -0.588,0.179 0.811,2.638 a 1.675,1.675 0 0 1 0.076,0.772 1.08,1.08 0 0 1 -0.864,0.813 0.965,0.965 0 0 1 -1.016,-0.2 1.759,1.759 0 0 1 -0.4,-0.719 l -0.79,-2.638 -0.6,0.175 0.729,2.4 a 2.752,2.752 0 0 0 0.584,1.138 z"
         class="prefix__cls-1"
         data-name="パス 635"
         transform="translate(-1110.165,-346.635)"
         style="fill:#ffffff" />
      <path
         id="prefix__パス_636"
         d="m 1133.812,355.173 -0.206,-3.6 2.441,3.478 0.685,-0.04 -0.24,-4.447 -0.566,0.027 0.184,3.6 -2.412,-3.478 -0.718,0.036 0.24,4.452 z"
         class="prefix__cls-1"
         data-name="パス 636"
         transform="translate(-1106.8,-346.992)"
         style="fill:#ffffff" />
      <path
         id="prefix__パス_637"
         d="m 1136.52,350.732 -0.6,-0.072 -0.554,4.425 0.6,0.072 z"
         class="prefix__cls-1"
         data-name="パス 637"
         transform="translate(-1103.707,-346.868)"
         style="fill:#ffffff" />
      <path
         id="prefix__パス_638"
         d="m 1137.646,355.732 2.818,-3.8 -0.641,-0.2 -2.3,3.281 -0.146,-4 -0.639,-0.193 0.28,4.73 z"
         class="prefix__cls-1"
         data-name="パス 638"
         transform="translate(-1101.917,-346.663)"
         style="fill:#ffffff" />
      <path
         id="prefix__パス_639"
         d="m 1141.121,357.154 0.247,-0.462 -2.347,-1.306 0.732,-1.319 2.141,1.189 0.249,-0.449 -2.136,-1.189 0.644,-1.189 2.323,1.284 0.26,-0.476 -2.823,-1.566 -2.166,3.9 z"
         class="prefix__cls-1"
         data-name="パス 639"
         transform="translate(-1099.967,-345.558)"
         style="fill:#ffffff" />
      <path
         id="prefix__パス_640"
         d="m 1140.481,356.712 1.278,-1.413 1.011,0.892 a 1.468,1.468 0 0 1 0.313,0.418 0.634,0.634 0 0 1 -0.151,0.65 l -0.483,0.57 a 2.527,2.527 0 0 0 -0.213,0.28 c -0.023,0.053 -0.039,0.1 -0.062,0.142 l 0.547,0.508 0.067,-0.08 a 0.405,0.405 0 0 1 0.041,-0.333 1.916,1.916 0 0 1 0.23,-0.306 l 0.382,-0.453 a 1.039,1.039 0 0 0 0.264,-0.512 0.858,0.858 0 0 0 -0.092,-0.48 1.117,1.117 0 0 0 0.613,0.014 1.183,1.183 0 0 0 0.574,-0.377 1.091,1.091 0 0 0 0.241,-1.19 2.1,2.1 0 0 0 -0.505,-0.666 l -1.5,-1.365 -3.005,3.293 z m 2.649,-2.911 1.069,0.963 a 1.666,1.666 0 0 1 0.294,0.386 0.64,0.64 0 0 1 -0.2,0.71 0.651,0.651 0 0 1 -0.591,0.292 1.049,1.049 0 0 1 -0.6,-0.315 l -0.995,-0.91 z"
         class="prefix__cls-1"
         data-name="パス 640"
         transform="translate(-1097.654,-343.819)"
         style="fill:#ffffff" />
      <path
         id="prefix__パス_641"
         d="m 1142.57,358.246 a 1.123,1.123 0 0 1 -0.2,-1.087 1.265,1.265 0 0 1 0.411,-0.494 l -0.317,-0.466 a 1.441,1.441 0 0 0 -0.69,1.011 1.772,1.772 0 0 0 0.36,1.291 2.413,2.413 0 0 0 0.945,0.827 1.141,1.141 0 0 0 1.179,-0.159 1.033,1.033 0 0 0 0.512,-0.852 1.814,1.814 0 0 0 -0.131,-0.721 l -0.234,-0.574 a 3.661,3.661 0 0 1 -0.239,-0.8 0.553,0.553 0 0 1 0.246,-0.485 0.679,0.679 0 0 1 0.56,-0.1 1.063,1.063 0 0 1 0.6,0.471 1.107,1.107 0 0 1 0.223,0.947 1.309,1.309 0 0 1 -0.356,0.457 l 0.312,0.473 a 1.19,1.19 0 0 0 0.628,-1.011 1.815,1.815 0 0 0 -0.372,-1.135 1.473,1.473 0 0 0 -0.958,-0.726 1.3,1.3 0 0 0 -1.048,0.209 0.96,0.96 0 0 0 -0.457,0.813 2.378,2.378 0 0 0 0.22,0.834 l 0.214,0.556 a 2.406,2.406 0 0 1 0.189,0.733 0.6,0.6 0 0 1 -0.322,0.471 0.666,0.666 0 0 1 -0.834,-0.051 1.556,1.556 0 0 1 -0.441,-0.432 z"
         class="prefix__cls-1"
         data-name="パス 641"
         transform="translate(-1095.413,-341.125)"
         style="fill:#ffffff" />
      <path
         id="prefix__パス_642"
         d="m 1142.954,359.418 4.042,-1.867 -0.242,-0.561 -4.062,1.872 z"
         class="prefix__cls-1"
         data-name="パス 642"
         transform="translate(-1094.195,-338.653)"
         style="fill:#ffffff" />
      <path
         id="prefix__パス_643"
         d="m 1143.22,360.658 0.152,0.583 3.774,-1.059 0.413,1.45 0.516,-0.144 -0.985,-3.483 -0.5,0.139 0.4,1.45 z"
         class="prefix__cls-1"
         data-name="パス 643"
         transform="translate(-1093.51,-337.335)"
         style="fill:#ffffff" />
      <path
         id="prefix__パス_644"
         d="m 1143.562,362.129 0.036,0.6 1.8,-0.121 2.773,1.495 -0.038,-0.7 -2.235,-1.135 2.053,-1.418 -0.061,-0.709 -2.524,1.872 z"
         class="prefix__cls-1"
         data-name="パス 644"
         transform="translate(-1093.066,-334.57)"
         style="fill:#ffffff" />
      <path
         id="prefix__パス_645"
         d="m 1127.368,368.441 -0.915,-1.992 1.225,-0.556 1.051,2.257 0.487,-0.229 -1.295,-2.81 -4.037,1.863 0.242,0.556 1.842,-0.844 0.917,1.979 z"
         class="prefix__cls-1"
         data-name="パス 645"
         transform="translate(-1118.605,-328.114)"
         style="fill:#ffffff" />
      <path
         id="prefix__パス_646"
         d="m 1129.393,367.887 a 1.922,1.922 0 0 0 -1.682,-0.848 2.789,2.789 0 0 0 -1.514,0.593 2.671,2.671 0 0 0 -0.991,1.418 2.126,2.126 0 0 0 0.453,1.7 2.023,2.023 0 0 0 1.647,0.871 2.712,2.712 0 0 0 1.631,-0.618 2.5,2.5 0 0 0 0.935,-1.271 2.087,2.087 0 0 0 -0.479,-1.845 z m -0.087,1.544 a 1.923,1.923 0 0 1 -0.751,1.091 2.44,2.44 0 0 1 -1.266,0.524 1.227,1.227 0 0 1 -1.156,-0.565 1.362,1.362 0 0 1 -0.336,-1.271 1.976,1.976 0 0 1 0.749,-1.059 2.086,2.086 0 0 1 1.386,-0.515 1.432,1.432 0 0 1 1.059,0.607 1.357,1.357 0 0 1 0.315,1.188 z"
         class="prefix__cls-1"
         data-name="パス 646"
         transform="translate(-1116.928,-325.616)"
         style="fill:#ffffff" />
      <path
         id="prefix__パス_647"
         d="m 1131.466,370.377 -1.728,2.148 a 1.611,1.611 0 0 1 -0.6,0.512 1.091,1.091 0 0 1 -1.151,-0.257 1.014,1.014 0 0 1 -0.413,-0.951 1.9,1.9 0 0 1 0.363,-0.749 l 1.737,-2.144 -0.494,-0.377 -1.551,1.946 a 2.824,2.824 0 0 0 -0.623,1.119 1.874,1.874 0 0 0 2.392,1.942 2.679,2.679 0 0 0 0.972,-0.853 l 1.572,-1.955 z"
         class="prefix__cls-1"
         data-name="パス 647"
         transform="translate(-1114.591,-323.639)"
         style="fill:#ffffff" />
      <path
         id="prefix__パス_648"
         d="m 1131.841,374.343 -0.46,-4.2 -0.644,-0.3 -1.914,4.026 0.525,0.247 1.544,-3.254 0.489,4.218 0.61,0.3 1.919,-4.035 -0.531,-0.242 z"
         class="prefix__cls-1"
         data-name="パス 648"
         transform="translate(-1112.194,-321.975)"
         style="fill:#ffffff" />
      <path
         id="prefix__パス_649"
         d="m 1133.913,371.068 -1.74,-0.363 -0.926,4.354 1.746,0.377 a 1.615,1.615 0 0 0 1.755,-0.669 2.675,2.675 0 0 0 0.528,-1.19 2.445,2.445 0 0 0 -0.122,-1.572 1.69,1.69 0 0 0 -1.241,-0.937 z m 0.74,2.47 a 2.038,2.038 0 0 1 -0.143,0.448 1.869,1.869 0 0 1 -0.4,0.632 1.129,1.129 0 0 1 -0.632,0.329 1.682,1.682 0 0 1 -0.505,-0.051 l -1.027,-0.214 0.71,-3.348 1.032,0.214 a 1.191,1.191 0 0 1 0.912,0.669 2.213,2.213 0 0 1 0.053,1.321 z"
         class="prefix__cls-1"
         data-name="パス 649"
         transform="translate(-1109.047,-320.854)"
         style="fill:#ffffff" />
      <path
         id="prefix__パス_650"
         d="m 1134.455,375.016 -0.034,-1.512 2.455,-0.027 -0.016,-0.521 -2.439,0.036 -0.013,-1.351 2.639,-0.04 v -0.539 l -3.236,0.036 0.056,4.457 3.283,-0.049 -0.01,-0.525 z"
         class="prefix__cls-1"
         data-name="パス 650"
         transform="translate(-1105.72,-320.39)"
         style="fill:#ffffff" />
      <path
         id="prefix__パス_651"
         d="m 1139.061,371.139 a 1.657,1.657 0 0 0 -1.516,-0.306 l -1.723,0.425 1.052,4.336 1.723,-0.43 a 1.6,1.6 0 0 0 1.307,-1.356 3.038,3.038 0 0 0 -0.05,-1.312 2.377,2.377 0 0 0 -0.793,-1.357 z m 0.2,2.8 a 1.069,1.069 0 0 1 -0.444,0.584 2.355,2.355 0 0 1 -0.451,0.177 l -1.036,0.246 -0.807,-3.325 1.023,-0.253 a 1.2,1.2 0 0 1 1.112,0.2 2.192,2.192 0 0 1 0.614,1.172 2.938,2.938 0 0 1 0.074,0.466 1.642,1.642 0 0 1 -0.088,0.732 z"
         class="prefix__cls-1"
         data-name="パス 651"
         transform="translate(-1103.112,-320.767)"
         style="fill:#ffffff" />
      <path
         id="prefix__パス_652"
         d="m 1139.776,369.728 a 1.014,1.014 0 0 1 0.051,0.726 2.339,2.339 0 0 1 -0.593,0.625 l 0.223,0.34 0.864,-0.551 1.675,2.576 0.5,-0.324 -2.369,-3.626 z"
         class="prefix__cls-1"
         data-name="パス 652"
         transform="translate(-1098.682,-322.426)"
         style="fill:#ffffff" />
      <path
         id="prefix__パス_653"
         d="m 1143.573,369.576 a 1.157,1.157 0 0 0 -0.5,0.094 1.22,1.22 0 0 0 0.062,-0.46 0.875,0.875 0 0 0 -0.3,-0.609 1,1 0 0 0 -0.8,-0.306 1.323,1.323 0 0 0 -0.926,0.444 1.264,1.264 0 0 0 -0.473,0.937 1.113,1.113 0 0 0 0.322,0.841 0.826,0.826 0 0 0 0.6,0.287 0.85,0.85 0 0 0 0.418,-0.085 1.276,1.276 0 0 0 -0.1,0.7 1.02,1.02 0 0 0 0.317,0.607 1.228,1.228 0 0 0 1.016,0.418 1.625,1.625 0 0 0 1.009,-0.5 1.5,1.5 0 0 0 0.531,-1.05 1.33,1.33 0 0 0 -0.425,-0.961 1.063,1.063 0 0 0 -0.751,-0.357 z m -1.714,0.74 a 0.579,0.579 0 0 1 -0.5,-0.193 0.727,0.727 0 0 1 -0.2,-0.466 0.779,0.779 0 0 1 0.26,-0.545 0.816,0.816 0 0 1 0.574,-0.264 0.723,0.723 0 0 1 0.462,0.184 0.765,0.765 0 0 1 0.184,0.49 0.713,0.713 0 0 1 -0.269,0.54 0.907,0.907 0 0 1 -0.511,0.253 z m 2.031,1.271 a 0.873,0.873 0 0 1 -0.675,0.3 0.808,0.808 0 0 1 -0.568,-0.264 0.8,0.8 0 0 1 -0.255,-0.623 0.9,0.9 0 0 1 0.3,-0.6 1,1 0 0 1 0.634,-0.306 0.826,0.826 0 0 1 0.634,0.273 0.81,0.81 0 0 1 0.244,0.63 0.909,0.909 0 0 1 -0.314,0.589 z"
         class="prefix__cls-1"
         data-name="パス 653"
         transform="translate(-1096.863,-323.983)"
         style="fill:#ffffff" />
      <path
         id="prefix__パス_654"
         d="m 1144.681,367.424 a 3,3 0 0 0 -1.069,-0.515 1.316,1.316 0 0 0 -1.454,0.6 1.257,1.257 0 0 0 -0.244,1.119 1.542,1.542 0 0 0 0.667,0.887 1.321,1.321 0 0 0 2.126,-0.848 0.8,0.8 0 0 0 -0.065,-0.6 2.541,2.541 0 0 1 0.876,1.075 0.8,0.8 0 0 1 -0.129,0.728 0.624,0.624 0 0 1 -0.285,0.26 0.674,0.674 0 0 1 -0.7,-0.062 l -0.322,0.443 a 1.115,1.115 0 0 0 0.866,0.207 1.225,1.225 0 0 0 0.827,-0.6 1.369,1.369 0 0 0 -0.069,-1.7 3.754,3.754 0 0 0 -1.025,-0.994 z m -0.549,1.441 a 0.791,0.791 0 0 1 -0.584,0.4 1.037,1.037 0 0 1 -0.671,-0.207 1.13,1.13 0 0 1 -0.455,-0.6 0.928,0.928 0 0 1 0.687,-1.05 0.971,0.971 0 0 1 0.735,0.209 0.873,0.873 0 0 1 0.459,0.648 0.958,0.958 0 0 1 -0.172,0.599 z"
         class="prefix__cls-1"
         data-name="パス 654"
         transform="translate(-1095.264,-325.827)"
         style="fill:#ffffff" />
      <path
         id="prefix__パス_655"
         d="m 1145.5,366.946 a 6.119,6.119 0 0 1 -0.763,-0.993 5.023,5.023 0 0 1 -0.413,-0.8 l -0.439,-0.193 -1.218,2.764 0.492,0.216 0.981,-2.194 a 9.04,9.04 0 0 0 0.786,1.31 7.534,7.534 0 0 0 1.9,1.827 l 0.244,-0.552 a 9.069,9.069 0 0 1 -0.781,-0.593 5.71,5.71 0 0 1 -0.789,-0.792 z"
         class="prefix__cls-1"
         data-name="パス 655"
         transform="translate(-1094.234,-328.306)"
         style="fill:#ffffff" />
      <path
         id="prefix__パス_656"
         d="m 1165,370.307 c -0.083,-0.455 -0.14,-0.917 -0.225,-1.369 a 0.221,0.221 0 0 1 -0.016,-0.076 23.832,23.832 0 0 0 -0.46,-1.751 19.7,19.7 0 0 0 -38.525,5.781 c 0,0.3 0.023,0.609 0.037,0.91 a 19.69,19.69 0 0 0 39.359,-0.91 c 0,-0.418 -0.039,-0.836 -0.067,-1.252 a 3.893,3.893 0 0 0 -0.025,-0.494 c -0.024,-0.283 -0.068,-0.552 -0.078,-0.839 z m -0.526,0.825 c 0.3,0.1 0.193,0.4 0.053,0.508 a 0.284,0.284 0 0 1 -0.418,-0.244 0.251,0.251 0 0 1 0.361,-0.264 z m -0.31,-1.121 c 0.519,0.754 -0.69,0.211 -0.853,-0.1 -0.15,-0.311 0.543,-0.342 0.849,0.1 z m -0.1,2.415 c 0.1,0.237 -0.393,0.368 -0.533,0 -0.14,-0.368 0.246,-0.683 0.533,0 z m -0.784,-0.862 a 0.4,0.4 0 0 1 -0.629,-0.388 c 0.073,-0.29 0.372,-0.694 0.629,-0.444 0.432,0.414 0.335,0.611 0,0.832 z m 0.487,-2.415 c -0.368,0.034 -0.611,-0.207 -0.719,-0.719 -0.108,-0.512 0.422,-0.421 0.719,-0.1 0.278,0.293 0.375,0.782 0,0.819 z m -0.9,-4.35 c 0.3,0.1 0.184,0.4 0.062,0.508 a 0.286,0.286 0 0 1 -0.42,-0.248 c 0,-0.228 0.121,-0.336 0.355,-0.259 z m -0.01,1.742 c 0.08,-0.432 0.2,-0.6 0.455,-0.188 0.255,0.412 0.542,0.489 0.271,0.924 -0.216,0.356 -0.589,0.352 -0.954,0.149 -0.365,-0.203 0.16,-0.458 0.224,-0.885 z m -0.517,1.422 a 1.122,1.122 0 0 1 -0.011,0.715 0.928,0.928 0 0 0 0.143,0.717 c 0.145,0.287 -0.108,0.418 -0.225,0.269 a 1.413,1.413 0 0 0 -0.384,-0.25 0.455,0.455 0 0 1 -0.087,-0.508 0.769,0.769 0 0 0 -0.082,-0.655 0.421,0.421 0 0 1 0.266,-0.533 c 0.16,-0.042 0.296,0.015 0.376,0.245 z m 0.051,2.679 c -0.062,0.23 -0.241,0.315 -0.529,0.221 -0.4,-0.108 -0.489,-0.687 -0.156,-0.79 0.333,-0.103 0.738,0.342 0.681,0.569 z m -0.29,-4.393 c -0.163,0.381 -0.623,0.175 -0.882,0.152 -0.244,-0.03 -0.292,-0.386 -0.142,-0.641 a 0.5,0.5 0 0 1 0.607,-0.292 0.549,0.549 0 0 1 0.412,0.781 z m -1.749,3.118 c -0.432,0.182 -0.526,-0.067 -0.515,-0.779 0.014,-0.733 0.733,-0.49 0.923,-0.126 0.266,0.494 0.025,0.731 -0.411,0.905 z m 0.271,0.921 c -0.172,0.08 -0.623,0.188 -0.6,-0.14 a 0.432,0.432 0 0 1 0.6,-0.381 c 0.443,0.179 0.162,0.455 0,0.522 z m -9.883,0.1 a 2.7,2.7 0 0 1 -1.057,-0.333 1.656,1.656 0 0 1 -0.512,-1.252 c -0.016,-0.485 0.042,-0.977 0.042,-1.342 v -0.021 a 0.583,0.583 0 0 1 0.489,-0.356 0.413,0.413 0 0 1 0.528,0.386 1.461,1.461 0 0 0 0.14,0.432 0.789,0.789 0 0 0 -0.216,0.871 c 0.11,0.207 0.381,0.2 0.6,-0.168 a 0.848,0.848 0 0 0 0.117,-0.448 c 0.025,0 0.055,0.014 0.06,0 0.521,-0.108 0.641,-0.246 0.88,0.156 0.239,0.402 0.453,0.473 0.784,0.409 a 0.83,0.83 0 0 1 0.3,-0.009 c -0.057,0.122 -0.14,0.234 -0.188,0.356 -0.285,0.712 -0.4,0.774 -0.71,1 a 2.463,2.463 0 0 1 -1.26,0.318 z m 1.144,0.781 c 0.058,0.175 -0.241,0.193 -0.363,0.26 -0.122,0.067 -0.182,0.237 -0.483,0.211 -0.301,-0.026 -0.276,-0.4 -0.241,-0.531 a 0.394,0.394 0 0 1 0.483,-0.184 c 0,0 0.546,0.081 0.601,0.244 z m -8.424,-1.082 a 0.332,0.332 0 0 1 0,0.427 c -0.083,0.087 -0.223,0.264 -0.159,0.372 a 0.31,0.31 0 0 1 0.014,0.349 0.275,0.275 0 0 0 0.105,0.386 c 0.152,0.076 0.2,0.517 -0.02,0.584 -0.22,0.067 -0.331,0.381 -0.2,0.5 a 0.3,0.3 0 0 1 0,0.43 c -0.126,0.1 -0.106,0.207 -0.06,0.381 0.046,0.174 0.1,0.65 -0.2,0.6 -0.3,-0.05 -0.2,-0.4 -0.439,-0.579 -0.239,-0.179 -0.457,-0.156 -0.6,-0.386 a 0.562,0.562 0 0 1 0.08,-0.813 c 0.328,-0.26 0.552,-0.138 0.57,-0.48 0,-0.345 -0.2,-0.5 -0.4,-0.393 -0.2,0.107 -0.584,-0.338 -0.866,-0.037 a 0.6,0.6 0 0 1 -1.032,-0.315 c -0.237,-0.811 0.453,-1.238 0.666,-1.073 0,0 0.289,0.253 0.533,0.186 a 0.57,0.57 0 0 1 0.643,0.085 0.431,0.431 0 0 0 0.7,-0.31 c 0,-0.315 0.188,-0.444 0.152,-0.8 -0.011,-0.349 0.249,-0.453 0.425,-0.368 a 0.5,0.5 0 0 1 0.159,0.678 c -0.128,0.274 -0.193,0.454 -0.074,0.575 z m -4.768,0.161 c 0.172,-0.4 0.487,-0.462 0.653,-0.358 0.145,0.09 0.159,0.26 -0.044,0.526 -0.246,0.326 0.041,0.669 -0.28,0.726 -0.308,0.058 -0.476,-0.5 -0.331,-0.895 z m -0.05,-1.652 c 0.128,-0.11 0.262,-0.007 0.411,0.113 0.26,0.243 -0.064,0.485 -0.211,0.365 -0.147,-0.12 -0.336,-0.353 -0.203,-0.474 z m 0.538,-0.529 a 4.209,4.209 0 0 0 -1.117,0.09 0.338,0.338 0 0 0 -0.092,0.526 1.021,1.021 0 0 1 0.241,0.487 1.9,1.9 0 0 1 -0.628,-0.264 11.394,11.394 0 0 1 -0.51,-0.223 1.325,1.325 0 0 0 0.041,-0.193 c 0.026,-0.377 -0.115,-0.97 0.166,-1.285 0.281,-0.315 0.673,-0.448 0.809,-0.237 a 0.64,0.64 0 0 1 0.06,0.11 c -0.032,0.014 -0.06,0.023 -0.1,0.041 -0.368,0.211 -0.579,0.758 -0.235,0.825 a 0.828,0.828 0 0 0 0.756,-0.391 0.846,0.846 0 0 0 0.556,0.172 1.356,1.356 0 0 0 1.124,-0.531 0.492,0.492 0 0 1 0.74,-0.048 c 0.01,0.025 0.041,0.048 0.076,0.076 a 1.776,1.776 0 0 1 0.1,0.42 c -0.023,0.257 0.016,0.4 0.188,0.5 a 0.611,0.611 0 0 0 0.653,-0.076 c 0,0 0.324,-0.264 0.4,0 a 4.13,4.13 0 0 1 -0.05,0.579 v 0.211 h -0.019 c -0.06,0.411 -0.161,0.588 -0.565,0.637 a 4.988,4.988 0 0 1 -1.516,-0.386 1.043,1.043 0 0 1 -0.579,-0.4 c -0.174,-0.277 -0.309,-0.578 -0.502,-0.64 z m -1.284,2.433 c -0.159,0 -0.595,-0.074 -0.616,-0.278 0,-0.2 0.165,-0.276 0.487,-0.2 0.647,0.168 0.424,0.487 0.129,0.478 z m -4.832,-1.422 a 2.4,2.4 0 0 0 -0.31,0.561 0.242,0.242 0 0 1 -0.377,-0.037 c -0.032,-0.1 -0.1,-0.131 -0.333,-0.14 -0.233,-0.009 -0.273,-0.03 -0.361,-0.161 a 0.384,0.384 0 0 1 0.053,-0.434 c 0.094,-0.131 0.3,-0.136 0.469,-0.131 a 0.981,0.981 0 0 0 0.558,-0.2 c 0.184,-0.113 0.372,-0.165 0.5,0 0.103,0.158 -0.021,0.346 -0.2,0.542 z m 0.023,1.829 a 0.471,0.471 0 0 1 -0.669,0 c -0.191,-0.2 0.08,-0.57 0.315,-0.641 0.214,-0.076 0.354,-0.071 0.483,0.085 0.129,0.156 0.016,0.404 -0.131,0.556 z m -3.4,-3.6 c 0.053,0.108 -0.062,0.211 -0.159,0.246 a 0.574,0.574 0 0 0 -0.243,0.211 0.308,0.308 0 0 1 -0.285,0.149 c -0.122,-0.014 -0.122,-0.108 -0.241,-0.253 a 0.394,0.394 0 0 1 0,-0.462 c 0.081,-0.152 0.212,-0.143 0.356,-0.143 a 0.992,0.992 0 0 1 0.572,0.253 z m 0.014,-0.928 a 0.227,0.227 0 0 1 -0.23,0.377 c -0.281,-0.041 -0.287,-0.292 -0.352,-0.455 -0.065,-0.163 0.166,-0.371 0.577,0.079 z m -0.6,2.181 a 0.72,0.72 0 0 0 0.528,-0.269 c 0.2,-0.175 0.338,-0.009 0.257,0.115 a 1.677,1.677 0 0 0 -0.115,0.352 0.336,0.336 0 0 1 -0.365,0.17 0.669,0.669 0 0 0 -0.5,0.211 0.332,0.332 0 0 1 -0.459,-0.08 c -0.076,-0.122 -0.062,-0.244 0.094,-0.361 a 1.037,1.037 0 0 1 0.555,-0.137 z m 0.267,1.346 a 0.436,0.436 0 0 1 -0.448,0.306 c -0.161,-0.023 -0.3,-0.159 -0.184,-0.347 0.116,-0.188 0.232,-0.218 0.459,-0.207 a 0.189,0.189 0 0 1 0.168,0.249 z m -0.821,2.123 a 0.645,0.645 0 0 1 0.354,-0.239 c 0.2,-0.048 0.3,-0.023 0.358,0.055 a 0.371,0.371 0 0 1 -0.071,0.43 0.7,0.7 0 0 1 -0.547,0.136 c -0.184,-0.041 -0.188,-0.273 -0.098,-0.381 z m 0.563,-0.823 c -0.143,0.018 -0.393,-0.032 -0.43,-0.138 a 0.251,0.251 0 0 1 0.1,-0.329 c 0.126,-0.085 0.328,-0.08 0.467,-0.147 a 1.087,1.087 0 0 0 0.305,-0.253 0.578,0.578 0 0 1 0.409,-0.1 c 0.088,0.018 0.168,0.122 0.133,0.292 a 0.846,0.846 0 0 1 -0.306,0.441 1.2,1.2 0 0 1 -0.682,0.236 z m 0.726,0.356 a 0.41,0.41 0 0 1 0.42,-0.154 c 0.237,0.009 0.305,-0.048 0.336,-0.09 a 0.143,0.143 0 0 1 0.248,0.09 c 0.016,0.2 -0.209,0.349 -0.372,0.427 -0.163,0.078 -0.39,0.218 -0.574,0.094 -0.173,-0.11 -0.087,-0.289 -0.062,-0.365 z m 0.721,-1.737 c -0.3,0.09 -0.441,-0.083 -0.593,-0.216 a 0.27,0.27 0 0 1 0.051,-0.427 c 0.138,-0.085 0.207,-0.232 0.322,-0.336 a 0.512,0.512 0 0 1 0.505,-0.1 c 0.163,0.044 0.181,0.287 0.191,0.538 a 0.58,0.58 0 0 1 -0.48,0.543 z m -0.28,-2.613 c -0.028,-0.2 0.1,-0.283 0.266,-0.269 a 2.818,2.818 0 0 1 0.758,0.26 c 0.168,0.145 0.14,0.34 0,0.593 -0.159,0.25 -0.384,0.147 -0.669,0.179 -0.285,0.032 -0.248,-0.2 -0.228,-0.381 0.02,-0.181 -0.092,-0.187 -0.131,-0.38 z m 1.052,-0.921 c -0.089,0.234 -0.37,0.113 -0.506,0.1 -0.151,-0.018 -0.188,-0.23 -0.089,-0.379 a 0.3,0.3 0 0 1 0.349,-0.165 0.308,0.308 0 0 1 0.242,0.446 z m -0.391,-2.737 a 0.33,0.33 0 0 1 -0.469,-0.345 c 0.021,-0.239 0.165,-0.432 0.469,-0.333 0.424,0.156 0.284,0.572 0,0.68 z m -0.347,1.2 c -0.014,0.129 0.08,0.156 0.032,0.34 -0.048,0.184 -0.219,0.08 -0.418,0 a 0.57,0.57 0 0 1 -0.25,-0.682 c 0.06,-0.25 0.216,-0.17 0.365,-0.131 a 0.516,0.516 0 0 1 0.268,0.474 z m 0.319,5.7 a 0.651,0.651 0 0 1 0.515,-0.508 c 0.26,-0.048 0.354,0.09 0.376,0.211 a 0.843,0.843 0 0 1 -0.491,0.719 c -0.309,0.104 -0.49,-0.135 -0.403,-0.422 z m 1.013,-4.736 c -0.046,-0.156 0.135,-0.379 0.4,-0.062 0.265,0.317 0.333,0.57 0.593,0.763 a 0.388,0.388 0 0 1 -0.166,0.65 c -0.239,0.032 -0.49,0.009 -0.6,-0.227 a 4.855,4.855 0 0 0 -0.218,-0.347 0.436,0.436 0 0 1 -0.057,-0.358 c 0.039,-0.175 0.094,-0.274 0.045,-0.419 z m 1.142,-1.333 a 3.527,3.527 0 0 1 0.56,0.221 c 0.251,0.126 0.184,0.368 -0.06,0.611 -0.244,0.243 -0.186,0.448 -0.358,0.542 -0.172,0.094 -0.3,-0.207 -0.26,-0.363 a 1.119,1.119 0 0 0 -0.147,-0.6 c -0.133,-0.266 0.096,-0.468 0.263,-0.41 z m -1.172,3.516 a 4.762,4.762 0 0 0 0.556,-0.225 c 0.184,-0.071 0.292,-0.032 0.333,0.113 0.041,0.145 -0.113,0.221 -0.28,0.221 -0.167,0 -0.242,0.108 -0.333,0.2 a 0.269,0.269 0 0 1 -0.441,0.021 0.207,0.207 0 0 1 0.163,-0.331 z m 1.516,-0.4 a 0.657,0.657 0 0 0 0.386,-0.434 c 0.014,-0.122 0.088,-0.386 0.336,-0.267 0.356,0.179 -0.03,0.719 -0.03,0.719 -0.076,0.188 -0.032,0.485 -0.225,0.5 a 0.837,0.837 0 0 1 -0.558,-0.11 c -0.145,-0.093 -0.184,-0.265 0.089,-0.409 z m 1.356,-1.351 c -0.186,0.143 -0.492,0 -0.492,0 -0.239,-0.067 -0.347,-0.17 -0.342,-0.287 0.01,-0.117 0.05,-0.211 0.243,-0.3 0.193,-0.089 0.283,-0.184 0.381,0.028 0.098,0.212 0.38,0.409 0.208,0.559 z m 0.3,0.9 c 0.191,0.115 0.1,0.584 -0.158,0.6 -0.273,0.009 -0.259,-0.29 -0.186,-0.485 a 0.214,0.214 0 0 1 0.338,-0.116 z m -1.238,2.252 a 0.675,0.675 0 0 1 0.556,-0.048 c 0.179,0.094 0.265,0.142 0.244,0.237 0,0.108 -0.331,0.108 -0.432,0.184 -0.101,0.076 -0.17,0.154 -0.3,0.163 -0.13,0.009 -0.267,-0.041 -0.244,-0.182 0.045,-0.144 0.045,-0.289 0.17,-0.356 z m 0.5,-1.027 a 0.527,0.527 0 0 1 0.393,-0.126 0.8,0.8 0 0 1 0.6,0.358 c 0.019,0.154 -0.1,0.2 -0.6,0.2 -0.49,0.001 -0.49,-0.339 -0.398,-0.434 z m 0.8,-3.187 a 0.348,0.348 0 0 1 0.436,-0.165 c 0,0 0.485,0.067 0.552,0.221 0.067,0.154 -0.216,0.17 -0.319,0.232 -0.12,0.067 -0.166,0.221 -0.453,0.188 -0.287,-0.033 -0.254,-0.356 -0.222,-0.478 z m 0.128,-3.155 c 0.092,-0.255 0.228,-0.211 0.4,-0.1 0.172,0.111 0.2,0.705 0.17,0.947 a 0.362,0.362 0 0 1 -0.6,0.193 c -0.297,-0.207 -0.072,-0.773 0.025,-1.041 z m 0.446,5.372 c 0.2,-0.126 0.43,-0.1 0.444,0.053 a 0.437,0.437 0 0 1 0,0.234 c -0.01,0.207 -0.03,0.386 -0.246,0.485 -0.216,0.099 -0.368,0.094 -0.432,0 -0.046,-0.094 0.025,-0.225 0.016,-0.363 a 0.363,0.363 0 0 1 0.213,-0.414 z m 0.051,1.647 a 0.781,0.781 0 0 0 0.432,-0.512 c 0.021,-0.156 0.234,-0.255 0.308,-0.08 a 0.982,0.982 0 0 1 -0.055,0.669 0.531,0.531 0 0 1 -0.505,0.34 c -0.23,0 -0.4,0.074 -0.494,-0.057 -0.094,-0.131 0.065,-0.248 0.308,-0.361 z m 0.453,-2.452 a 0.422,0.422 0 0 1 -0.478,-0.2 c -0.073,-0.119 -0.025,-0.227 0.069,-0.372 a 0.247,0.247 0 0 1 0.34,-0.119 l 0.485,0.179 c 0.159,0.034 0.131,0.2 -0.05,0.241 -0.181,0.041 -0.175,0.195 -0.375,0.271 z m -0.2,-2.181 c 0.03,-0.416 0.246,-0.712 0.609,-0.632 0.57,0.113 0.5,0.471 0.237,0.731 -0.263,0.26 -0.861,0.328 -0.855,-0.099 z m 0.774,-2.962 c 0.287,0.076 0.287,0.441 0,0.74 -0.255,0.306 -0.409,-0.044 -0.381,-0.391 0.028,-0.347 0.175,-0.416 0.375,-0.349 z m 0.122,-1.54 c 0.3,-0.391 0.921,0.14 1.165,0.462 0.232,0.283 -0.03,0.565 -0.786,0.584 -0.756,0.019 -0.672,-0.655 -0.384,-1.045 z m 0.74,2.514 c 0.4,0.023 0.232,0.444 0.166,0.82 -0.287,1.3 -0.623,0.108 -0.623,0.108 -0.581,-0.505 0.049,-0.959 0.451,-0.928 z m -0.356,3.693 c 0.092,-0.214 0.234,-0.2 0.388,-0.138 0.26,0.1 0.327,0.377 0.062,0.533 -0.265,0.156 -0.539,-0.193 -0.456,-0.395 z m 2.36,-4.545 a 0.474,0.474 0 0 1 -0.752,0.175 c -0.294,-0.221 -0.02,-0.574 0.062,-0.781 0.082,-0.207 0.391,-0.175 0.583,0.014 a 0.447,0.447 0 0 1 0.101,0.592 z m 0.064,3.585 c -0.034,0.432 -0.393,0.45 -0.632,0.267 -0.239,-0.183 -0.1,-0.9 -0.071,-1.218 0.044,-0.308 0.253,-0.317 0.476,-0.129 0.301,0.268 0.26,0.65 0.221,1.079 z m -0.466,-2.679 a 0.322,0.322 0 0 1 0.168,0.545 c -0.152,0.193 -0.4,0.264 -0.568,0.014 -0.268,-0.381 0.106,-0.644 0.394,-0.56 z m -0.094,4.01 a 0.387,0.387 0 0 1 0.526,0.407 c 0,0.278 -0.209,0.377 -0.425,0.466 a 0.453,0.453 0 0 1 -0.554,-0.308 c -0.057,-0.279 0.166,-0.447 0.446,-0.566 z m 1.346,-3.605 c -0.363,0.062 -0.39,-0.623 -0.266,-1.041 0.14,-0.418 0.505,-0.471 0.692,-0.1 a 0.76,0.76 0 0 1 -0.432,1.14 z m -0.1,2.5 a 0.434,0.434 0 0 1 0.048,-0.616 c 0.161,-0.053 0.292,0.014 0.342,0.221 0.088,0.276 -0.2,0.55 -0.4,0.398 z m 3.989,-3.488 c 0.434,0.657 -0.319,1 -0.708,0.974 -0.389,-0.026 -0.021,-0.57 0.05,-0.933 0.079,-0.35 0.421,-0.396 0.648,-0.038 z m -0.365,-1.857 c 0.29,-0.234 0.5,0.2 0.628,0.551 0.158,0.386 0.11,0.427 -0.338,0.466 -0.448,0.039 -0.412,-0.122 -0.439,-0.4 -0.027,-0.278 -0.153,-0.377 0.139,-0.614 z m -0.409,3.189 a 0.283,0.283 0 0 1 0.2,0.365 c -0.06,0.175 -0.232,0.193 -0.439,0.175 a 0.273,0.273 0 0 1 -0.168,-0.423 c 0.093,-0.157 0.254,-0.138 0.393,-0.113 z m -1.172,-1.631 c -0.528,0.062 0.044,-0.894 0.237,-1.181 0.193,-0.287 0.43,-0.152 0.547,0.25 0.201,0.79 -0.245,0.866 -0.794,0.934 z m 0.529,1.268 c -0.151,0.319 -0.485,0.292 -0.848,-0.156 -0.363,-0.448 0.526,-0.731 0.8,-0.634 0.274,0.097 0.219,0.403 0.038,0.794 z m -0.225,1.925 a 0.338,0.338 0 0 1 -0.478,-0.368 c 0.01,-0.25 0.174,-0.457 0.478,-0.349 0.447,0.165 0.297,0.604 -0.01,0.721 z m -0.848,1.243 c 0.4,0.131 0.253,0.521 0.083,0.659 a 0.381,0.381 0 0 1 -0.563,-0.312 c -0.01,-0.31 0.162,-0.45 0.47,-0.342 z m -0.368,-1.691 c 0.147,-0.055 0.271,0.018 0.333,0.216 0.087,0.278 -0.207,0.551 -0.4,0.407 a 0.431,0.431 0 0 1 0.057,-0.619 z m 0.361,-0.74 a 0.242,0.242 0 0 1 -0.315,-0.243 c 0.014,-0.156 0.1,-0.221 0.315,-0.221 0.232,0 0.335,0.186 0.292,0.3 -0.022,0.104 -0.135,0.127 -0.302,0.168 z m -0.039,-3.977 c -0.676,-0.147 -0.574,-0.409 -0.372,-0.781 0.202,-0.372 0.579,-0.542 0.843,-0.322 0.7,0.636 0.201,1.256 -0.481,1.107 z m -0.232,0.476 c 0.2,0 0.345,0.122 0.423,0.372 a 0.426,0.426 0 0 1 -0.285,0.545 0.5,0.5 0 0 1 -0.584,-0.211 0.493,0.493 0 0 1 0.115,-0.57 0.541,0.541 0 0 1 0.32,-0.132 z m 1.877,8.208 c -0.165,0.145 -0.271,-0.076 -0.3,-0.2 -0.016,-0.12 0.085,-0.345 0.223,-0.3 0.288,0.085 0.242,0.361 0.067,0.503 z m 0.03,-1.937 c -0.055,-0.207 -0.027,-0.563 0.212,-0.414 a 0.547,0.547 0 0 1 0.135,0.777 c -0.157,0.084 -0.297,-0.158 -0.357,-0.36 z m 0.331,-1.034 c -0.478,0.092 -0.483,-0.29 -0.386,-0.59 0.055,-0.3 0.209,-0.441 0.448,-0.356 a 3.138,3.138 0 0 1 0.393,0.23 c 0.219,0.138 0.01,0.625 -0.465,0.719 z m 0.712,-2.031 a 0.354,0.354 0 0 1 0.641,-0.046 c 0.232,0.517 -0.283,0.894 -0.724,0.825 -0.435,-0.059 -0.116,-0.436 0.073,-0.776 z m 3.5,-2.181 a 0.788,0.788 0 0 1 -0.267,0.882 c -0.152,0.126 -0.257,-0.152 -0.315,-0.466 v 0.009 a 0.372,0.372 0 0 0 -0.533,-0.3 c -0.462,0.166 -0.554,-0.494 -0.512,-0.928 0.051,-0.418 0.232,-0.637 0.512,-0.561 0.4,0.113 0.3,0.618 0.363,0.786 0.063,0.168 0.294,0.1 0.294,0.1 v 0.009 c 0,0 0.367,-0.125 0.452,0.472 z m 11.048,2.031 c 0.186,0.239 0.234,0.414 0.081,0.611 -0.154,0.225 -0.469,0.17 -0.692,0.067 a 0.58,0.58 0 0 1 -0.241,-0.786 c 0.159,-0.295 0.669,-0.104 0.846,0.112 z m -0.482,-1.7 c 0.124,-0.1 0.342,-0.1 0.361,0.117 0.076,0.218 0,0.317 -0.177,0.462 0,0 -0.184,0.147 -0.29,-0.046 a 0.424,0.424 0 0 1 0.099,-0.525 z m -0.106,4.164 c 0.154,-0.17 0.305,-0.214 0.411,0.051 0.177,0.466 0,0.758 -0.356,0.632 -0.385,-0.117 -0.224,-0.517 -0.061,-0.676 z m -0.223,-0.6 c -0.517,0.349 -0.726,-0.032 -0.747,-0.494 -0.021,-0.462 0.23,-0.485 0.563,-0.4 0.472,0.134 0.677,0.541 0.177,0.897 z m -0.363,-2.989 c -0.14,0.49 -0.4,0.156 -0.758,0 -0.358,-0.156 -0.2,-0.453 0,-0.8 0.232,-0.4 0.643,-0.51 0.956,-0.124 0.349,0.405 -0.071,0.437 -0.204,0.927 z m -1.055,-1.243 c -0.209,0.085 -0.5,-0.117 -0.441,-0.315 0.059,-0.198 0.232,-0.232 0.441,-0.09 0.16,0.102 0.198,0.327 -0.01,0.41 z m -0.046,1.85 c 0.333,0.025 0.427,0.147 0.515,0.443 a 0.282,0.282 0 0 1 -0.258,0.363 0.584,0.584 0 0 1 -0.652,-0.381 0.328,0.328 0 0 1 0.389,-0.423 z m -1.032,3 c -0.228,-0.223 -0.025,-0.57 0.2,-0.492 a 0.945,0.945 0 0 1 0.636,1.4 c -0.264,0.607 -0.641,0.48 -0.577,0.117 a 1.274,1.274 0 0 0 -0.264,-1.026 z m -0.264,2.569 c 0.1,-0.1 0.329,-0.149 0.386,-0.009 0.12,0.283 -0.122,0.421 -0.343,0.372 -0.221,-0.049 -0.118,-0.266 -0.049,-0.364 z m -0.113,-0.46 c -0.2,-0.11 -0.053,-0.3 0.067,-0.349 0.117,-0.076 0.349,-0.046 0.361,0.1 0.024,0.312 -0.25,0.361 -0.434,0.248 z m 1.062,-3.683 c 0.039,0.377 -0.281,0.547 -0.871,0.358 -0.59,-0.189 0.055,-0.97 0.384,-1.041 0.283,-0.088 0.398,0.224 0.481,0.682 z M 1155.45,366 a 0.694,0.694 0 0 1 -0.5,1.112 c -0.54,0.122 -0.579,-0.315 -0.37,-0.476 0.209,-0.161 0.179,-0.211 0.37,-0.565 0.191,-0.354 0.403,-0.249 0.5,-0.071 z m -0.8,-1.558 c 0,0.255 -0.228,0.368 -0.616,0.161 a 0.8,0.8 0 0 1 -0.467,-0.88 0.449,0.449 0 0 1 0.6,-0.377 c 0.639,0.196 0.497,0.835 0.486,1.095 z m -1.112,-1.8 c -0.129,0.113 -0.384,0.138 -0.535,0.237 a 1.689,1.689 0 0 0 -0.326,0.333 0.642,0.642 0 0 1 -0.469,0.179 0.271,0.271 0 0 1 -0.214,-0.324 1.092,1.092 0 0 1 0.312,-0.574 1.582,1.582 0 0 1 0.777,-0.363 c 0.177,-0.044 0.469,-0.018 0.545,0.108 a 0.3,0.3 0 0 1 -0.088,0.403 z m -1.3,-2.128 c 0.239,-0.2 0.411,-0.023 0.469,0.246 a 0.73,0.73 0 0 1 -0.23,0.938 c -0.537,0.333 -0.384,-0.191 -0.384,-0.191 0.174,-0.476 -0.088,-0.814 0.144,-0.993 z m -0.163,-0.71 c -0.409,-0.287 -0.032,-0.588 0.246,-0.749 a 0.472,0.472 0 0 1 0.643,0.108 c 0.606,0.556 -0.488,0.928 -0.89,0.637 z m 0.188,-1.174 c -0.643,0.053 -0.567,-0.262 -0.282,-0.836 0.3,-0.574 0.669,-0.278 0.905,-0.08 0.441,0.35 0.01,0.856 -0.623,0.916 z M 1152,365.9 c 0.375,0.34 -0.115,0.905 -0.437,0.825 -0.322,-0.08 -0.26,-0.542 -0.1,-0.777 0.176,-0.23 0.321,-0.248 0.537,-0.048 z m -2,0.43 c -0.393,-0.358 0.59,-1.027 0.9,-1.342 0.31,-0.315 0.6,0 0.317,0.253 -0.26,0.255 -0.377,0.354 -0.342,0.659 0.084,0.744 -0.475,0.793 -0.875,0.429 z m -0.244,-3.89 c -0.271,-0.315 0.069,-0.542 0.349,-0.646 a 0.737,0.737 0 0 1 0.733,0.161 c 0.177,0.147 0.2,0.43 -0.131,0.664 a 0.675,0.675 0 0 1 -0.95,-0.18 z m 0.972,1.776 c -0.329,0.085 -0.494,-0.377 -0.4,-0.669 a 0.657,0.657 0 0 1 0.558,-0.391 c 0.363,-0.062 0.267,0.046 0.577,0.239 0.31,0.193 0.322,0.669 0,0.669 a 2.22,2.22 0 0 0 -0.733,0.152 z m 0.793,-2.808 c -0.187,0.147 -0.412,-0.108 -0.533,-0.225 -0.121,-0.117 0.062,-0.319 0.152,-0.489 a 0.3,0.3 0 0 1 0.558,0.046 0.615,0.615 0 0 1 -0.175,0.668 z m -0.887,-3.412 c -0.474,-0.057 -0.37,-0.646 -0.235,-0.956 0.152,-0.31 0.356,-0.368 0.721,-0.225 0.317,0.117 0.425,0.267 0.4,0.678 -0.048,0.417 -0.43,0.558 -0.885,0.507 z m 0.094,0.809 c 0.4,-0.028 0.726,-0.244 0.574,0.529 -0.152,0.773 -0.418,0.6 -0.793,0.354 -0.356,-0.246 -0.661,-0.466 -0.595,-0.749 0.066,-0.283 0.441,-0.116 0.816,-0.139 z m -0.575,1.2 c 0,0 0.294,0.08 0.317,0.547 a 0.786,0.786 0 0 1 -0.476,0.841 c -0.312,0.133 -0.312,-0.57 -0.312,-0.921 0.018,-0.349 0.145,-0.498 0.473,-0.472 z m -0.694,-1.489 c -0.29,0.039 -0.5,-0.1 -0.3,-0.526 0.223,-0.425 0.519,-0.439 0.584,-0.255 0.412,0.826 -0.282,0.777 -0.282,0.777 z m -0.255,1.305 c -0.034,0.3 -0.055,0.574 -0.407,0.5 -0.352,-0.074 -0.533,-0.135 -0.533,-0.386 0,-0.251 0.269,-0.269 0.31,-0.522 0.041,-0.253 0.018,-0.6 0.342,-0.457 0.324,0.143 0.306,0.731 0.29,0.862 z m -0.1,2.137 c -0.246,0.221 -0.519,-0.287 -0.462,-0.71 0.057,-0.423 0.289,-0.519 0.462,-0.381 a 0.874,0.874 0 0 1 0,1.087 z m -0.905,-3.527 a 0.606,0.606 0 0 1 -0.225,-0.852 c 0.182,-0.159 0.358,-0.117 0.556,0.11 0.258,0.311 0.01,0.837 -0.33,0.738 z m -0.14,5.2 c -0.255,0.145 -0.3,0.4 -0.659,0.522 -0.359,0.122 -0.161,-0.683 0.078,-1.064 0.218,-0.377 0.505,-0.184 0.646,-0.028 a 0.359,0.359 0 0 1 -0.06,0.562 z m -1.443,-1.059 c 0.136,-0.124 0.25,-0.071 0.3,0.078 0,0 0.071,0.1 -0.085,0.453 a 0.647,0.647 0 0 1 -0.689,0.494 c -0.322,-0.051 -0.182,-0.476 0.032,-0.6 0.247,-0.128 0.314,-0.297 0.447,-0.434 z m -1.243,-0.09 c -0.43,-0.012 -0.421,-0.519 -0.193,-0.784 0.211,-0.257 0.34,-0.253 0.685,-0.145 a 0.5,0.5 0 0 1 0.386,0.542 c 0.01,0.321 -0.432,0.383 -0.873,0.379 z m -0.055,-2.957 c 0.211,-0.2 0.386,-0.147 0.487,-0.053 a 0.888,0.888 0 0 1 0.06,0.974 0.344,0.344 0 0 1 -0.646,-0.1 0.776,0.776 0 0 1 0.104,-0.829 z m -0.129,-0.618 c -0.485,0.232 -0.565,-0.188 -0.4,-0.735 0.186,-0.549 0.26,-0.45 0.767,-0.526 0.437,-0.058 0.473,0.108 0.542,0.526 0.069,0.418 -0.417,0.497 -0.904,0.728 z m -0.65,7.392 c 0,-0.182 0.117,-0.154 0.269,-0.126 0.124,0.023 0.2,0.165 0.218,0.466 0.018,0.301 -0.175,0.517 -0.326,0.508 a 0.223,0.223 0 0 1 -0.191,-0.324 1.943,1.943 0 0 0 0.035,-0.533 z m 0.312,-1.634 c -0.177,-0.188 0.129,-0.324 0.368,-0.441 0.239,-0.117 0.278,-0.094 0.459,0.055 0.368,0.3 0.368,0.462 0.308,0.6 -0.044,0.154 -0.232,0.078 -0.59,0.207 -0.358,0.129 -0.354,-0.232 -0.54,-0.429 z m 0.731,1.367 c 0.018,-0.2 0.117,-0.218 0.26,-0.3 0.248,-0.133 0.335,0.023 0.409,0.145 a 0.747,0.747 0 0 0 0.365,0.358 c 0.191,0.067 0.3,0.032 0.312,0.269 0.012,0.237 -0.386,0.292 -0.551,0.319 a 1.121,1.121 0 0 1 -0.646,-0.179 c -0.213,-0.144 -0.165,-0.418 -0.144,-0.62 z m 0.935,-0.857 c -0.158,-0.331 -0.048,-0.682 0.335,-0.584 0.331,0.083 0.331,0.262 0.664,0.253 0.333,-0.009 0.386,0.184 0.3,0.331 -0.086,0.147 -0.177,0.08 -0.524,0.278 a 0.5,0.5 0 0 1 -0.77,-0.286 z m 1.087,1.468 c 0.26,-0.315 0.092,-0.735 0.448,-0.862 0.478,-0.188 0.62,0.108 0.7,0.457 0.08,0.349 0.211,0.535 -0.393,0.9 -0.604,0.365 -1.016,-0.179 -0.75,-0.503 z m 0.837,-1.648 a 0.652,0.652 0 0 1 -0.108,-0.965 c 0.207,-0.232 0.333,-0.053 0.418,0.145 0,0 0.076,0.306 0.181,0.655 0.111,0.323 -0.112,0.449 -0.486,0.158 z m 0.427,-2.332 c 0.255,-0.276 0.531,0.147 0.614,0.4 a 3.959,3.959 0 0 1 0.149,0.772 c 0.011,0.315 -0.122,0.457 -0.457,0.108 -0.335,-0.349 -0.568,-1.014 -0.301,-1.288 z m 0.269,2.812 a 1.079,1.079 0 0 0 0.3,-0.5 c 0.048,-0.2 0.246,-0.34 0.342,-0.2 0.246,0.368 -0.078,0.754 -0.365,0.938 -0.287,0.184 -0.401,-0.105 -0.272,-0.245 z m 3.605,4.92 c 0.212,0.028 0.384,0.227 0.2,0.425 -0.184,0.198 -0.581,0.131 -0.618,-0.108 -0.037,-0.239 0.101,-0.352 0.423,-0.325 z m -0.46,-2.459 c -0.142,-0.225 -0.115,-0.409 0,-0.846 0.115,-0.437 0.365,-0.682 0.671,-0.345 0.322,0.328 0.119,1.036 0.119,1.036 a 0.487,0.487 0 0 1 -0.785,0.148 z m 0.2,-2.72 c 0.025,-0.439 0.191,-0.65 0.476,-0.556 0.738,0.246 0.634,0.721 0.259,1.094 -0.375,0.373 -0.753,-0.102 -0.725,-0.546 z m 1.162,0.485 c 0.147,-0.253 0.292,-0.225 0.386,-0.14 0.717,0.655 -0.016,1 -0.423,0.9 -0.38,-0.099 -0.092,-0.513 0.048,-0.768 z m 0.051,1.1 c 0.285,0.08 0.239,0.356 0.06,0.5 -0.163,0.145 -0.271,-0.071 -0.3,-0.2 -0.029,-0.129 0.089,-0.349 0.25,-0.31 z m -0.131,3.722 a 6.471,6.471 0 0 1 0.6,-1.441 0.3,0.3 0 0 1 0.066,-0.108 3.6,3.6 0 0 0 0.46,-0.06 c 0.535,-0.108 0.673,-0.227 0.875,0.168 a 1.045,1.045 0 0 0 1.211,0.637 c -0.092,0.034 -0.179,0.062 -0.278,0.1 a 8.738,8.738 0 0 1 -1.464,0.494 3.186,3.186 0 0 1 -1.294,0.2 c -0.048,0 -0.124,0 -0.189,0.012 z m 2.758,-1.721 a 0.512,0.512 0 0 1 0.827,-0.184 0.463,0.463 0 0 1 0,0.45 c -0.119,0.242 -0.94,0.081 -0.817,-0.275 z m 0.745,-1.259 c -0.3,0.119 -0.48,-0.113 -0.48,-0.365 0.016,-0.25 0.184,-0.466 0.48,-0.354 0.471,0.156 0.333,0.597 0.01,0.71 z m 0.145,-1.487 c -0.221,-0.237 0.027,-0.682 0.409,-0.328 0.841,0.777 0.375,1.321 0.115,1.167 -0.182,-0.124 -0.278,-0.614 -0.515,-0.848 z m 0.784,1.464 c 0.347,-0.188 0.34,-0.485 0.653,-0.418 0.218,0.055 0.333,0.23 0.48,0.471 0.163,0.253 -0.01,0.441 -0.425,0.414 -0.444,-0.023 -0.786,0.165 -0.986,0 -0.2,-0.165 -0.067,-0.287 0.282,-0.476 z m 1.062,1.112 c 0.434,0.113 0.489,0.579 0,0.561 -0.519,-0.014 -1,0.046 -0.931,-0.232 0.069,-0.278 0.459,-0.461 0.939,-0.338 z m -0.253,1.032 c 0,0 0.446,-0.1 0.581,0.182 0.152,0.278 -0.135,0.453 -0.57,0.386 -0.435,-0.067 -0.203,-0.518 0,-0.578 z m 0.607,-7.125 c 0.03,-0.338 -0.073,-0.988 0.338,-0.625 0.434,0.356 1.011,1.558 0.1,1.252 a 0.515,0.515 0 0 1 -0.43,-0.637 z m 0.623,3.573 c 0.427,0.551 0.358,1.2 -0.058,1.255 -0.388,0.074 -0.464,-0.632 -0.531,-1.094 -0.067,-0.462 0.381,-0.442 0.597,-0.173 z m -0.09,-1.227 c 0.184,-0.152 0.37,-0.11 0.558,0.117 0.257,0.319 0.012,0.843 -0.32,0.74 a 0.6,0.6 0 0 1 -0.23,-0.867 z m 0.671,2.392 c -0.018,-0.453 0.234,-0.3 0.453,-0.241 0.333,0.085 0.31,0.485 0,0.717 -0.31,0.232 -0.417,-0.026 -0.445,-0.486 z m 0.933,-4.968 c 0.288,0.154 0.329,0.508 0,0.643 -0.329,0.135 -0.795,-0.188 -0.68,-0.5 0.106,-0.332 0.331,-0.376 0.687,-0.152 z m 0.49,1.831 c 0.191,0.319 0,0.54 -0.538,0.3 a 2.564,2.564 0 0 0 -1.156,-0.113 c -0.625,0.009 -0.574,-0.453 -0.31,-0.528 0.31,-0.094 0.489,-0.149 0.779,-0.234 a 0.943,0.943 0 0 1 1.232,0.565 z m -1.693,-3 c 0.151,-0.053 0.271,0.018 0.342,0.216 0.073,0.278 -0.225,0.554 -0.416,0.4 a 0.436,0.436 0 0 1 0.081,-0.629 z m -2.443,-1.942 c 0.726,-0.131 0.8,0.09 0.774,0.322 -0.026,0.232 -0.5,0.108 -0.48,0.319 0,0.216 0.437,0.565 0.68,0.324 0.243,-0.241 0.7,-0.347 0.852,0 0.191,0.363 -0.384,0.788 -0.852,0.614 -0.248,-0.094 -0.306,-0.188 -0.974,-0.444 -0.668,-0.256 -0.73,-1.019 0.01,-1.147 z m -1.517,-0.588 a 1.6,1.6 0 0 0 0.1,-0.462 0.573,0.573 0 0 1 0.416,-0.363 c 0.168,-0.037 0.313,0.165 0.455,0.393 a 0.593,0.593 0 0 1 -0.149,0.733 c -0.214,0.241 -0.434,0.165 -0.636,0.122 a 0.278,0.278 0 0 1 -0.178,-0.433 z m -0.549,3.419 c -0.4,-0.053 -0.756,-0.363 -0.512,-0.524 a 0.7,0.7 0 0 1 0.885,-0.09 c 0.563,0.36 0.05,0.67 -0.366,0.601 z m 0.062,-2.907 a 1.75,1.75 0 0 0 0.211,0.377 0.38,0.38 0 0 1 -0.115,0.48 0.784,0.784 0 0 0 -0.184,0.609 0.409,0.409 0 0 1 -0.443,0.372 0.291,0.291 0 0 1 -0.237,-0.372 1.014,1.014 0 0 1 0.294,-0.623 0.864,0.864 0 0 0 0.151,-0.692 c -10e-4,-0.326 0.268,-0.336 0.33,-0.163 z m -0.885,-1.985 c 0.221,-0.43 0.554,-0.636 0.641,-0.4 0.207,0.478 -0.363,1.2 -0.363,1.2 -0.292,0.614 -0.482,-0.376 -0.27,-0.813 z m 0.354,5.269 a 0.452,0.452 0 0 1 -0.168,0.866 c -0.505,0.032 -0.777,-0.505 -0.565,-0.786 0.212,-0.281 0.355,-0.306 0.741,-0.093 z m -0.96,-6.16 a 0.563,0.563 0 0 1 0,0.853 c -0.375,0.292 -0.71,0.009 -0.71,-0.4 0,-0.409 0.35,-0.733 0.717,-0.466 z m -0.4,1.8 a 0.329,0.329 0 0 1 0.5,0.1 1.072,1.072 0 0 1 -0.214,1.059 c -0.308,0.246 -0.634,0.053 -0.644,-0.329 a 0.82,0.82 0 0 1 0.361,-0.844 z m 0.193,2.67 c 0.225,0.551 -0.26,0.588 -0.5,0.866 -0.24,0.278 -0.666,0.2 -0.545,-0.076 a 0.984,0.984 0 0 0 0.071,-0.8 c -0.083,-0.25 -0.1,-0.485 0.083,-0.574 0.329,-0.188 0.641,0.028 0.89,0.568 z m -1.519,-5.246 c 0.342,-0.211 0.542,-0.06 0.636,0.1 a 1.207,1.207 0 0 1 -0.31,1.259 0.462,0.462 0 0 1 -0.788,-0.372 0.987,0.987 0 0 1 0.465,-1.001 z m -1.252,-0.579 a 0.489,0.489 0 0 1 0.3,-0.126 0.4,0.4 0 0 1 0.372,0.338 0.387,0.387 0 0 1 -0.25,0.48 0.472,0.472 0 0 1 -0.535,-0.182 0.449,0.449 0 0 1 0.115,-0.524 z m -0.285,0.924 c 0.134,0.108 0.188,0.287 -0.018,0.4 -0.206,0.113 -0.3,0.071 -0.487,-0.057 0,0 -0.193,-0.149 -0.037,-0.3 a 0.433,0.433 0 0 1 0.545,-0.058 z m -1.1,-1.4 c 0.379,0.014 0.685,-0.014 0.724,0.31 a 0.564,0.564 0 0 1 -0.267,0.65 c -0.3,0.223 -0.7,0.506 -0.818,0.113 -0.118,-0.393 0,-1.1 0.361,-1.088 z m -0.388,1.753 c 0.306,0.441 0.092,0.687 -0.252,1.011 -0.361,0.326 -0.492,-0.108 -0.678,-0.432 -0.186,-0.324 -0.163,-0.494 0.244,-0.7 0.429,-0.237 0.493,-0.17 0.685,0.108 z m -0.986,-2.059 c 0.241,0 0.3,0.062 0.5,0.251 0.2,0.189 0.051,0.427 -0.129,0.377 -0.211,-0.057 -0.437,0.154 -0.639,0.168 -0.202,0.014 -0.189,-0.09 -0.315,-0.329 -0.126,-0.239 0.344,-0.476 0.583,-0.476 z m -0.467,1.248 a 0.306,0.306 0 0 1 0.159,0.382 3.123,3.123 0 0 1 -0.306,0.508 1.684,1.684 0 0 0 -0.078,0.466 0.566,0.566 0 0 1 -0.278,0.416 0.277,0.277 0 0 1 -0.358,-0.156 0.934,0.934 0 0 1 -0.06,-0.637 1.388,1.388 0 0 1 0.411,-0.745 c 0.115,-0.153 0.37,-0.3 0.506,-0.247 z m -1.064,-1.36 c 0.143,-0.1 0.315,-0.1 0.375,0.117 0.06,0.217 -0.016,0.319 -0.193,0.462 a 0.183,0.183 0 0 1 -0.292,-0.046 0.435,0.435 0 0 1 0.11,-0.547 z m -0.2,4.506 c 0.067,-0.354 0.312,-0.533 0.561,-0.349 a 0.581,0.581 0 0 1 -0.156,1.055 c -0.395,0.075 -0.487,-0.366 -0.407,-0.72 z m -1.4,-2.537 c 0,0 0.818,-0.43 0.487,-0.581 -0.331,-0.151 -0.2,-0.983 -0.1,-1.365 a 0.318,0.318 0 0 1 0.561,-0.161 c 0.177,0.124 0.11,0.655 0.085,0.951 a 0.837,0.837 0 0 1 -0.14,0.591 c -0.14,0.211 -0.14,0.191 0.241,0.315 0.381,0.124 -0.1,0.655 -0.305,0.813 -0.205,0.158 -0.372,0.708 -0.754,0.4 a 0.637,0.637 0 0 1 -0.081,-0.976 z m -0.825,-2.1 a 0.315,0.315 0 0 1 0.593,0.1 0.7,0.7 0 0 1 -0.115,0.756 c -0.186,0.191 -0.344,0.142 -0.448,0.048 a 0.888,0.888 0 0 1 -0.036,-0.913 z m 0,1.487 a 0.655,0.655 0 0 1 -0.145,0.627 1.173,1.173 0 0 0 -0.142,0.983 c 0.067,0.512 -0.073,0.9 -0.478,0.547 -0.436,-0.354 -0.533,-0.749 -0.375,-0.995 0.158,-0.246 0.244,-0.611 0.43,-0.951 0.186,-0.34 0.555,-0.535 0.695,-0.22 z m -1.188,-1.539 c 0.365,-0.188 0.423,0.324 0.471,0.6 0.071,0.287 -0.048,0.363 -0.2,0.363 -0.975,-0.031 -0.656,-0.771 -0.281,-0.977 z m 0.32,4.182 c 0.432,0.517 0.358,0.758 -0.175,0.692 -0.533,-0.066 -1.023,-0.292 -0.664,-0.692 a 0.5,0.5 0 0 1 0.828,-0.01 z m -0.977,-1.032 a 6.232,6.232 0 0 0 -0.384,0.655 c -0.12,0.2 -0.258,0.248 -0.423,0.145 -0.165,-0.103 -0.062,-0.31 0.117,-0.441 a 0.6,0.6 0 0 0 0.182,-0.466 c 0.023,-0.31 0.266,-0.43 0.439,-0.354 a 0.262,0.262 0 0 1 0.058,0.451 z m -0.306,-2.916 c 0.186,0.12 0.207,0.228 0.193,0.462 0,0 -0.027,0.237 -0.241,0.17 a 0.39,0.39 0 0 1 -0.29,-0.448 c 0.01,-0.182 0.128,-0.315 0.328,-0.193 z m -0.3,1.448 c 0.4,0.113 0.342,0.489 0.1,0.682 -0.242,0.193 -0.372,-0.1 -0.409,-0.269 -0.037,-0.169 0.098,-0.476 0.303,-0.423 z m -0.519,1.6 a 0.278,0.278 0 0 1 -0.416,-0.244 c 0,-0.232 0.129,-0.335 0.361,-0.26 a 0.278,0.278 0 0 1 0.048,0.494 z m -0.652,-2.617 c 0.135,-0.17 0.459,-0.358 0.574,0.071 0.039,0.184 0.227,0.616 0,0.692 a 0.409,0.409 0 0 1 -0.5,-0.131 0.654,0.654 0 0 1 -0.081,-0.643 z m -1.032,-0.009 c 0.28,-0.232 0.5,0.207 0.542,0.462 a 3.187,3.187 0 0 1 0.039,0.767 c -0.025,0.3 -0.177,0.414 -0.439,0.032 -0.285,-0.396 -0.422,-1.051 -0.149,-1.272 z m 0.439,2.59 c 0,0 0.062,0.17 0.49,0.453 0.428,0.283 -0.131,0.662 -0.386,0.62 -0.269,-0.057 -0.381,-0.136 -0.678,0.067 -0.338,0.2 -0.818,0.349 -0.79,-0.232 0.028,-0.581 0.478,-0.664 0.653,-0.832 0.175,-0.168 0.628,-0.402 0.704,-0.087 z m -1.075,-1.884 c 0.628,1.31 -0.193,1.565 -0.236,1.193 a 10.676,10.676 0 0 0 -0.276,-1.282 c -0.093,-0.371 0.268,-0.387 0.504,0.077 z m -0.931,4.577 c 0.064,-0.418 0.23,-0.4 0.411,-0.48 a 1.052,1.052 0 0 1 1.172,0.071 c 0.347,0.239 -0.055,0.418 -0.278,0.772 -0.223,0.354 -0.352,-0.023 -0.816,0.131 -0.445,0.136 -0.57,-0.096 -0.496,-0.505 z m -0.147,5.3 c -0.333,0.515 -0.822,0.179 -0.965,-0.117 a 0.548,0.548 0 0 1 0.632,-0.678 c 0.434,0.088 0.586,0.38 0.326,0.78 z m -0.425,-9.573 c 0.057,-0.154 0.223,-0.257 0.377,-0.094 0.154,0.163 0.147,0.269 0.088,0.49 0,0 -0.083,0.223 -0.276,0.115 a 0.427,0.427 0 0 1 -0.196,-0.525 z m -0.126,1.45 c 0.152,-0.168 0.319,-0.078 0.425,0.085 a 3.16,3.16 0 0 1 0.2,0.866 c -0.012,0.255 -0.223,0.345 -0.547,0.358 -0.347,0.023 -0.382,-0.257 -0.568,-0.5 -0.216,-0.246 0.027,-0.358 0.214,-0.448 0.163,-0.107 0.107,-0.219 0.268,-0.376 z m -0.457,-1.154 a 0.669,0.669 0 0 1 -0.135,0.788 c -0.216,0.184 -0.609,-0.331 -0.588,-0.547 0,-0.23 0.545,-0.517 0.715,-0.255 z m -0.416,2.58 c 0.48,0.133 0.65,0.476 0.289,0.807 -0.361,0.331 -0.471,-0.152 -0.581,-0.345 -0.11,-0.193 -0.063,-0.57 0.284,-0.476 z m -1.165,-1.882 a 0.708,0.708 0 0 1 0.676,1.055 c -0.266,0.306 -0.623,0.391 -0.793,0.037 -0.151,-0.315 -0.541,-0.966 0.109,-1.106 z m -0.087,3.9 a 0.877,0.877 0 0 1 -0.609,0.779 c -0.356,0.1 -0.283,-0.209 -0.331,-0.561 a 1.345,1.345 0 0 1 0.161,-0.825 0.342,0.342 0 0 1 0.381,-0.244 c 0.627,-0.036 0.436,0.492 0.39,0.835 z m -0.758,-2.909 c 0.315,0.423 0.515,0.937 -0.03,0.965 -0.545,0.028 -0.6,-0.315 -0.588,-0.593 0.044,-0.689 0.281,-0.811 0.605,-0.388 z m -0.446,5.786 c 0.26,0.156 0.308,0.83 -0.09,0.68 -0.342,-0.133 -0.558,0.09 -0.77,-0.034 -0.23,-0.126 -0.092,-0.306 0.251,-0.565 0.343,-0.259 0.522,-0.132 0.601,-0.098 z m -0.326,-0.963 c 0.016,0.207 -0.03,0.37 -0.464,0.432 -0.434,0.062 -0.145,-0.512 -0.051,-0.871 0.094,-0.359 0.324,-0.232 0.384,-0.1 a 1.31,1.31 0 0 1 0.123,0.523 z m -1.089,-3.7 c 0.143,-0.246 0.375,-0.283 0.671,-0.094 0.418,0.264 0.338,0.951 -0.074,0.96 -0.412,0.009 -0.762,-0.641 -0.606,-0.884 z m 0.652,1.675 a 0.575,0.575 0 0 1 0,0.875 c -0.386,0.3 -0.742,0 -0.744,-0.4 0,-0.4 0.35,-0.771 0.74,-0.493 z m -1.149,-1.069 a 0.283,0.283 0 0 1 0.053,0.508 0.3,0.3 0 0 1 -0.43,-0.248 c -0.01,-0.245 0.13,-0.354 0.369,-0.278 z m -0.48,3.3 a 1.322,1.322 0 0 0 0.14,-0.873 c -0.094,-0.4 -0.053,-0.512 0.243,-0.234 a 1.4,1.4 0 0 1 0.377,0.593 c 0.14,0.349 0.094,0.556 -0.345,0.682 -0.43,0.092 -0.478,-0.011 -0.423,-0.188 z m -0.142,1.142 c 0.193,-0.046 0.23,0.223 0.23,0.5 0,0.277 -0.108,0.273 -0.374,0.512 -0.266,0.239 -0.317,-0.156 -0.382,-0.345 a 0.462,0.462 0 0 1 0.115,-0.5 c 0.085,-0.139 0.189,-0.139 0.402,-0.187 z m -1.271,-2.842 c 0.126,-0.216 0.324,-0.241 0.586,-0.08 0.368,0.23 0.287,0.829 -0.071,0.834 a 0.635,0.635 0 0 1 -0.523,-0.775 z m -0.786,0.993 c 0.182,-0.26 0.338,-0.239 0.538,-0.113 a 0.619,0.619 0 0 1 0.225,0.434 c 0.041,0.3 -0.12,0.375 -0.375,0.347 -0.255,-0.028 -0.372,0.129 -0.574,0.028 -0.249,-0.156 0,-0.467 0.178,-0.717 z m -0.335,1.4 c 0.241,0.154 0.3,0.489 0,0.611 -0.3,0.122 -0.751,-0.17 -0.657,-0.471 0.094,-0.301 0.316,-0.355 0.648,-0.157 z m -1.177,1.22 c 0.126,-0.071 0.308,-0.03 0.476,0.168 a 5.933,5.933 0 0 0 0.717,0.65 c 0.237,0.193 0.315,0.221 0.319,0.4 0.025,0.165 -0.271,0.2 -0.441,-0.064 a 0.5,0.5 0 0 0 -0.572,-0.223 0.643,0.643 0 0 1 -0.577,-0.347 0.417,0.417 0 0 1 0.07,-0.601 z m -0.7,1.544 c 0.122,-0.227 0.416,-0.193 0.7,0 0.284,0.193 0.379,0.526 0.138,0.574 -0.241,0.048 -0.2,0.352 -0.354,0.437 -0.154,0.085 -0.462,-0.154 -0.569,-0.324 a 0.958,0.958 0 0 1 0.078,-0.704 z m -0.126,4.991 c -0.2,-0.067 -0.3,-0.184 -0.2,-0.51 a 1.219,1.219 0 0 1 0.471,-0.63 0.163,0.163 0 0 1 0.281,0.051 2.039,2.039 0 0 1 0.1,0.264 0.668,0.668 0 0 1 -0.087,0.363 c -0.094,0.138 -0.026,0.184 -0.044,0.358 -0.018,0.174 -0.307,0.168 -0.528,0.087 z m 0.266,1.271 c -0.115,0.225 -0.455,0.409 -0.62,0.584 -0.182,0.156 -0.522,0.368 -0.694,0.211 a 0.432,0.432 0 0 1 0.241,-0.657 c 0.276,-0.085 0.336,-0.4 0.556,-0.542 0.313,-0.234 0.681,-0.018 0.513,0.391 z m -0.737,-4.681 c -0.025,-0.207 0.145,-0.269 0.388,-0.028 a 4.139,4.139 0 0 0 0.349,0.31 c 0.076,0.1 0.154,0.25 0.076,0.345 a 0.489,0.489 0 0 1 -0.425,0.188 c -0.243,0.023 -0.464,-0.076 -0.5,-0.3 -0.047,-0.247 0.153,-0.32 0.105,-0.532 z m -0.409,1.6 c 0.156,-0.138 0.248,-0.136 0.508,-0.131 0.26,0.005 0.289,0.253 0.14,0.329 -0.191,0.09 -0.209,0.354 -0.333,0.48 -0.124,0.126 -0.163,0.057 -0.425,-0.023 -0.248,-0.096 -0.058,-0.525 0.103,-0.67 z m -0.319,1.893 c 0.078,-0.165 0.092,-0.209 0.271,-0.232 0.179,-0.023 0.161,0.08 0.2,0.188 0.016,0.108 0.053,0.1 0.1,0.188 0.047,0.088 -0.01,0.152 -0.066,0.207 a 0.332,0.332 0 0 1 -0.317,0.067 0.32,0.32 0 0 1 -0.195,-0.433 z m 38.4,2.279 a 19.265,19.265 0 0 1 -38.5,0.531 v -0.09 a 2.77,2.77 0 0 0 1.052,-0.476 c 0.575,-0.462 0.807,-0.453 1.214,-0.363 a 1.056,1.056 0 0 0 0.958,-0.193 1.163,1.163 0 0 1 0.676,-0.3 1.792,1.792 0 0 0 0.9,-0.471 c 0.276,-0.248 0.625,-0.545 0.993,-0.441 a 1.626,1.626 0 0 0 0.949,0.073 1.686,1.686 0 0 0 0.768,-0.607 1.589,1.589 0 0 1 0.816,-0.767 c 0.172,-0.055 0.492,-0.09 0.816,-0.154 0.531,0.154 0.882,0.593 1.454,0.866 0.616,0.283 1.177,0.6 1.776,0.809 a 13.955,13.955 0 0 1 1.606,0.588 c 0.5,0.26 0.264,0.09 0.574,0.345 0,0 0.386,0.23 0.342,0.4 a 2.473,2.473 0 0 0 0,0.448 c -0.087,0.54 -0.08,0.979 -0.156,1.2 a 2.548,2.548 0 0 0 -0.131,0.641 c -0.042,0.3 -0.062,0.444 -0.1,0.687 a 1.739,1.739 0 0 1 -0.237,0.538 c -0.1,0.149 -0.117,0.512 -0.278,0.611 a 2.018,2.018 0 0 1 -0.705,0.2 2.169,2.169 0 0 0 -0.717,0.161 2.433,2.433 0 0 1 -0.749,0.273 c -0.273,0.032 -0.607,0.055 -0.949,0.09 a 3,3 0 0 1 -0.726,0.083 c -0.365,-0.014 -0.687,-0.136 -0.9,-0.154 a 0.986,0.986 0 0 0 -0.646,0.08 0.322,0.322 0 0 0 -0.147,0.423 0.772,0.772 0 0 0 0.581,0.349 5.029,5.029 0 0 0 0.834,0.064 h 1.073 a 5.55,5.55 0 0 0 1.224,-0.083 8.429,8.429 0 0 1 1.062,-0.283 1.808,1.808 0 0 1 0.584,-0.039 3.522,3.522 0 0 1 0.653,0.179 c 0.129,0.032 0.733,0.085 1.055,0.108 a 8.048,8.048 0 0 0 1,0.025 l 1.39,-0.138 c 0.713,0 0.6,-0.565 0.262,-0.655 -0.147,-0.055 -0.482,0.067 -0.682,0.1 a 1.48,1.48 0 0 1 -1.022,-0.264 c -0.12,-0.159 -0.131,-0.347 -0.019,-0.719 a 1.2,1.2 0 0 0 0,-0.942 1.442,1.442 0 0 1 -0.069,-0.5 1.11,1.11 0 0 1 0.193,-0.471 0.626,0.626 0 0 1 0.784,-0.2 0.391,0.391 0 0 1 0.172,0.427 c -0.078,0.269 -0.232,0.3 -0.259,0.483 -0.027,0.183 0.027,0.216 0.108,0.4 0.081,0.184 0.151,0.329 -0.039,0.54 -0.266,0.292 -0.092,0.542 0.163,0.574 a 2.486,2.486 0 0 0 0.717,-0.131 0.564,0.564 0 0 0 0.29,-0.584 c -0.016,-0.237 -0.271,-0.292 0,-0.57 0.271,-0.278 0.188,-0.6 0.188,-0.848 -0.016,-0.246 0.069,-0.239 0.145,-0.512 0.092,-0.274 -0.163,-0.5 -0.315,-0.3 -0.136,0.2 -0.232,-0.609 -0.119,-0.758 a 1.309,1.309 0 0 0 0.273,-0.48 c 0.085,-0.241 0.134,-0.138 0.048,-0.453 -0.086,-0.315 -0.221,-0.124 -0.333,-0.175 -0.274,-0.117 -0.177,-0.683 -0.083,-1.087 0.094,-0.404 0.31,0.023 0.579,0.386 0.269,0.363 0.267,-0.476 0.172,-0.793 -0.095,-0.317 0.094,-0.97 -0.011,-1.261 a 1.169,1.169 0 0 1 0,-0.988 4.194,4.194 0 0 0 0.129,-1.229 0.766,0.766 0 0 1 0.836,-0.283 1.667,1.667 0 0 1 -0.03,0.4 1.551,1.551 0 0 1 -0.216,0.678 0.591,0.591 0 0 0 0.117,0.678 c 0.129,0.053 0.057,0.179 -0.039,0.34 -0.096,0.161 -0.108,0.324 0,0.414 0.131,0.085 -0.03,0.057 0,0.386 0.03,0.329 0.064,0.165 0,0.5 -0.048,0.352 -0.1,0.653 0.168,0.648 0.237,0 0.423,-0.108 0.5,0.085 0.077,0.193 0.172,0.637 0.361,0.547 a 0.634,0.634 0 0 0 0.331,-0.632 10.877,10.877 0 0 1 -0.17,-1.149 3.368,3.368 0 0 1 0.062,-0.965 1.452,1.452 0 0 0 0,-0.853 c -0.037,-0.211 -0.08,-0.368 -0.1,-0.522 a 1.35,1.35 0 0 0 0.94,0.273 0.233,0.233 0 0 1 -0.051,0.136 0.64,0.64 0 0 0 -0.1,0.7 c 0.094,0.221 0.476,0.333 0.177,0.666 -0.225,0.255 -0.083,0.641 0.287,0.579 0.446,-0.06 0.607,0.021 0.533,0.336 -0.094,0.338 0.2,0.4 0.381,0.4 a 0.617,0.617 0 0 1 0.361,1.172 2.57,2.57 0 0 0 -0.836,0.308 0.734,0.734 0 0 0 -0.216,0.862 c 0.124,0.193 0.251,0.361 0.078,0.6 a 0.585,0.585 0 0 0 -0.078,0.664 0.606,0.606 0 0 1 0.03,0.715 1.18,1.18 0 0 0 -0.147,1.064 c 0.168,0.308 0.358,0.694 0.147,0.857 -0.211,0.163 -0.218,0.1 -0.565,0.039 -0.347,-0.061 -0.54,0.06 -0.662,-0.255 -0.122,-0.315 0.243,-0.243 0.22,-0.6 -0.023,-0.357 -0.034,0 -0.034,-0.358 0,-0.358 0.294,-0.692 0.179,-1.121 -0.115,-0.429 0.232,-0.531 0.062,-0.866 -0.17,-0.335 -0.483,-0.409 -0.521,-0.742 -0.038,-0.333 -0.113,-0.57 -0.471,-0.551 -0.358,0.019 -0.076,1.611 -0.151,2.16 a 2.767,2.767 0 0 0 -0.046,1.055 1.163,1.163 0 0 1 0.085,0.609 c -0.035,0.48 -0.232,0.5 -0.112,0.735 0.1,0.234 0.01,0.375 -0.281,0.4 -0.288,0.025 -0.618,0.154 -0.669,0.4 -0.071,0.257 0.28,0.269 0.485,0.221 0.3,-0.09 0.761,-0.221 0.951,-0.09 a 2.177,2.177 0 0 0 0.834,0.326 c 0.381,0.041 0.963,0.126 1.287,0.149 a 10.081,10.081 0 0 0 2.006,-0.122 4.543,4.543 0 0 1 1.808,-0.152 5.648,5.648 0 0 0 1.285,0.391 13.235,13.235 0 0 1 1.539,0 11.168,11.168 0 0 0 1.675,0.133 c 0.329,-0.025 0.689,-0.062 0.554,-0.3 -0.135,-0.238 -0.34,-0.207 -0.767,-0.377 a 1.84,1.84 0 0 0 -1.207,-0.3 c -0.763,0.032 -0.868,0.168 -1.208,0.126 a 2.851,2.851 0 0 1 -1.038,-0.457 2.411,2.411 0 0 0 -1.31,-0.368 7.531,7.531 0 0 1 -1.666,0.124 1.746,1.746 0 0 1 -1.135,-0.721 2.4,2.4 0 0 1 -0.168,-1.068 4.511,4.511 0 0 0 0,-1.728 1.825,1.825 0 0 1 0.1,-0.533 c 0.069,-0.14 0.232,-0.565 0.407,-0.664 a 1.841,1.841 0 0 1 0.846,-0.271 c 0.393,-0.025 0.816,-0.156 1.255,-0.2 a 18.349,18.349 0 0 0 2.767,-0.565 c 0.558,-0.216 0.976,-0.409 1.388,-0.568 a 8.477,8.477 0 0 1 1.241,-0.308 c 0.14,0.308 0.618,0.588 1.477,0.246 1,-0.414 1.22,-0.34 1.595,0.2 a 1.581,1.581 0 0 0 1.225,0.777 c 0.533,0.085 0.848,0.032 1.013,0.425 0.165,0.393 0.319,0.8 0.871,0.71 a 1.51,1.51 0 0 1 0.871,0.179 z"
         class="prefix__cls-1"
         data-name="パス 656"
         transform="translate(-1116.155,-343.581)"
         style="fill:#ffffff" />
    </g>
  </g>
</svg>
