<?xml version="1.0" encoding="UTF-8" standalone="no"?>
<svg
   class="uol-logo-uol-inline"
   width="40"
   height="40"
   viewBox="0 0 40 40"
   version="1.1"
   focusable="false"
   aria-hidden="true"
   id="svg615"
   xmlns="http://www.w3.org/2000/svg"
   xmlns:svg="http://www.w3.org/2000/svg">
  <defs
     id="defs619" />
  <path
     d="m 29.5,13.85 h 0.54 v -0.47 h -0.92 v 1.47 h 0.3 z m -1.61,0 h 0.54 v -0.47 h -0.81 v 1.47 H 28 v -1 z M 0,0 V 40 H 20.77 V 28 h 3.52 v 12 h 0.46 V 26.85 h 6.44 V 40 h 0.43 V 28 h 3.6 v 12 h 4.75 V 0 Z M 28,6.81 31.49,9 h -7 z m -3.56,2.55 h 7.18 L 31.95,12 h -7.89 z m 10,18.18 h -2.72 v -1.16 h -7.35 v 1.16 h -2.75 v -2.47 h 0.46 v -8.36 h 0.76 v -4.33 h 10.34 v 4.33 h 0.77 V 25 h 0.46 z m -4.75,-2.47 h 0.61 v -5.5 h 1.32 v -1 h -1.89 z m -6,-7.43 h 8.51 l 0.42,-0.54 h -9.25 z m 3.3,7.43 h 0.63 v -5.5 h 1.3 v -1 H 26.97 Z M 26.22,13.85 h 0.54 v -0.47 h -0.84 v 1.47 h 0.3 z m -1.85,11.22 h 0.61 v -5.5 h 1.3 v -1 h -1.91 z m 3.68,3.48 c -0.754911,-0.01218 -1.442287,0.433194 -1.739656,1.127176 -0.297369,0.693981 -0.145726,1.49887 0.383788,2.037065 0.529514,0.538194 1.331832,0.702904 2.030556,0.416858 C 29.423413,31.845053 29.879902,31.165009 29.88,30.41 29.8748,29.396539 29.063243,28.571665 28.05,28.55 Z m 0,3.25 c -0.569727,0.0122 -1.089995,-0.322147 -1.31559,-0.845448 -0.225595,-0.523301 -0.111493,-1.131122 0.288527,-1.536981 0.400019,-0.40586 1.006123,-0.528758 1.532638,-0.310771 0.526516,0.217988 0.868365,0.733356 0.864425,1.3032 v 0 c 0.0027,0.366002 -0.140184,0.718069 -0.397111,0.978747 C 28.765962,31.649424 28.416002,31.797357 28.05,31.8 Z"
     fill-rule="nonzero"
     id="path573"
     style="fill:#ffffff;stroke:none;stroke-width:1" />
  <rect
     style="fill:none"
     id="rect621"
     width="40"
     height="40"
     x="0"
     y="0" />
</svg>
