<?xml version="1.0" encoding="UTF-8" standalone="no"?>
<svg
   class="uol-logo-uol-inline"
   width="40"
   height="40"
   viewBox="0 0 40 40"
   version="1.1"
   focusable="false"
   aria-hidden="true"
   id="svg60"
   sodipodi:docname="leedsLogo.svg"
   xmlns:inkscape="http://www.inkscape.org/namespaces/inkscape"
   xmlns:sodipodi="http://sodipodi.sourceforge.net/DTD/sodipodi-0.dtd"
   xmlns:xlink="http://www.w3.org/1999/xlink"
   xmlns="http://www.w3.org/2000/svg"
   xmlns:svg="http://www.w3.org/2000/svg">
  <defs
     id="defs64">
    <pattern
       inkscape:collect="always"
       xlink:href="#pattern224"
       id="pattern252" />
    <pattern
       patternUnits="userSpaceOnUse"
       width="285.62"
       height="40"
       id="pattern224">
      <g
         stroke="none"
         stroke-width="1"
         fill="none"
         fill-rule="evenodd"
         id="g58">
        <g
           class="uol-logo-uol-inline__img"
           transform="translate(-32,-12)"
           fill="#000000"
           id="g56">
          <g
             transform="translate(32,12)"
             id="g54">
            <path
               d="m 29.5,13.85 h 0.54 v -0.47 h -0.92 v 1.47 h 0.3 z m -1.61,0 h 0.54 v -0.47 h -0.81 v 1.47 H 28 v -1 z M 0,0 V 40 H 20.77 V 28 h 3.52 v 12 h 0.46 V 26.85 h 6.44 V 40 h 0.43 V 28 h 3.6 v 12 h 4.75 V 0 Z M 28,6.81 31.49,9 h -7 z m -3.56,2.55 h 7.18 L 31.95,12 h -7.89 z m 10,18.18 h -2.72 v -1.16 h -7.35 v 1.16 h -2.75 v -2.47 h 0.46 v -8.36 h 0.76 v -4.33 h 10.34 v 4.33 h 0.77 V 25 h 0.46 z m -4.75,-2.47 h 0.61 v -5.5 h 1.32 v -1 h -1.89 z m -6,-7.43 h 8.51 l 0.42,-0.54 h -9.25 z m 3.3,7.43 h 0.63 v -5.5 h 1.3 v -1 H 26.97 Z M 26.22,13.85 h 0.54 v -0.47 h -0.84 v 1.47 h 0.3 z m -1.85,11.22 h 0.61 v -5.5 h 1.3 v -1 h -1.91 z m 3.68,3.48 c -0.754911,-0.01218 -1.442287,0.433194 -1.739656,1.127176 -0.297369,0.693981 -0.145726,1.49887 0.383788,2.037065 0.529514,0.538194 1.331832,0.702904 2.030556,0.416858 0.698725,-0.286046 1.155214,-0.96609 1.155312,-1.721099 -0.0052,-1.013461 -0.816757,-1.838335 -1.83,-1.86 z m 0,3.25 c -0.569727,0.0122 -1.089995,-0.322147 -1.31559,-0.845448 -0.225595,-0.523301 -0.111493,-1.131122 0.288527,-1.536981 0.400019,-0.40586 1.006123,-0.528758 1.532638,-0.310771 0.526516,0.217988 0.868365,0.733356 0.864425,1.3032 v 0 c 0.0027,0.366002 -0.140184,0.718069 -0.397111,0.978747 C 28.765962,31.649424 28.416002,31.797357 28.05,31.8 Z"
               fill-rule="nonzero"
               id="path18" />
            <path
               d="m 67.74,21.56 v -9.45 h -3.22 v 9.67 c 0.05293,0.871937 -0.237849,1.72991 -0.81,2.39 -1.50842,1.320736 -3.76158,1.320736 -5.27,0 -0.602491,-0.701837 -0.916901,-1.605766 -0.88,-2.53 v -9.53 h -3.2 v 9.79 c -0.09889,1.597192 0.453032,3.166386 1.53,4.35 1.418028,1.188412 3.245412,1.773605 5.09,1.63 1.899878,0.122246 3.76942,-0.522548 5.19,-1.79 1.096572,-1.230118 1.661099,-2.844594 1.57,-4.49 z"
               fill-rule="nonzero"
               id="path20" />
            <path
               d="m 86.32,27.75 v -15.5 h -3.2 v 7.91 c 0,0.66 0,1.63 0,2.45 v 0 c -0.449932,-0.692722 -0.937323,-1.360381 -1.46,-2 l -6.53,-8.33 h -3.27 v 15.5 h 3.22 v -8.52 c 0,-0.7 0,-1.63 -0.06,-2.16 h 0.06 c 0.45,0.68 0.89,1.28 1.48,2 l 6.74,8.61 z"
               id="path22" />
            <polygon
               fill-rule="nonzero"
               points="93.91,12.24 90.67,12.24 90.67,27.75 93.91,27.75 "
               id="polygon24" />
            <path
               d="m 111.16,12.19 h -3.27 l -3.5,8.34 c -0.41694,0.90233 -0.77437,1.830981 -1.07,2.78 v 0 c -0.32,-0.87 -0.67,-1.86 -1.07,-2.87 l -3.17,-8.25 h -3.54 l 6.37,15.62 h 2.4 z"
               fill-rule="nonzero"
               id="path26" />
            <polygon
               fill-rule="nonzero"
               points="121.99,25.11 116.24,25.11 116.24,21.15 121.18,21.15 121.18,18.5 116.24,18.5 116.24,14.88 121.16,14.88 122.02,12.24 113.02,12.24 113.02,27.75 121.99,27.75 "
               id="polygon28" />
            <path
               d="m 137.49,27.75 c -2.35,-3.95 -3.84,-6.53 -4.63,-7 v 0 c 1.66497,-0.637083 2.77935,-2.217769 2.82,-4 0,-2.39 -1.49,-4.48 -5.63,-4.48 h -4.53 v 15.48 h 3.26 v -6 h 1.14 c 0.57,0.22 1.51,2 3.86,6 z m -5,-10.72 c 0.0224,1.268215 -0.98201,2.317252 -2.25,2.35 h -1.49 v -4.46 h 1.36 c 0.5995,-0.07736 1.20339,0.106109 1.65854,0.503885 0.45514,0.397776 0.71784,0.971655 0.72146,1.576115 z"
               id="path30" />
            <path
               d="m 148.78,23.39 c 0,-4.9 -6.67,-4.63 -6.67,-7.35 0,-0.89 0.89,-1.41 2,-1.41 1.31519,0.04836 2.59458,0.441487 3.71,1.14 v -2.79 c -1.20204,-0.641143 -2.54789,-0.964698 -3.91,-0.94 -3.42,0 -5.28,2.06 -5.28,4.43 -0.0236,1.012683 0.33324,1.997429 1,2.76 1.9,2.14 5.66,2.49 5.66,4.55 0,1.17 -1.26,1.59 -2.45,1.59 -1.27558,-0.04224 -2.5104,-0.459641 -3.55,-1.2 l -1.25,2.33 c 1.47351,1.008565 3.22469,1.532871 5.01,1.5 3.19,0 5.71,-1.76 5.71,-4.6 z"
               fill-rule="nonzero"
               id="path32" />
            <polygon
               fill-rule="nonzero"
               points="154.63,12.24 151.4,12.24 151.4,27.75 154.63,27.75 "
               id="polygon34" />
            <polygon
               fill-rule="nonzero"
               points="156.9,12.24 156.9,14.88 161.44,14.88 161.44,27.75 164.7,27.75 164.7,14.88 168.86,14.88 169.59,12.24 "
               id="polygon36" />
            <path
               d="m 183.77,12.25 h -3.37 l -2.37,4.37 c -0.35,0.65 -0.82,1.49 -1.12,2.19 v 0 c -0.32,-0.7 -0.81,-1.58 -1.14,-2.23 l -2.41,-4.33 h -3.55 l 5.37,9.37 v 6.13 h 3.2 v -6.09 z"
               fill-rule="nonzero"
               id="path38" />
            <path
               d="m 206.12,20 c 0.12583,-1.979434 -0.54178,-3.927492 -1.8553,-5.413647 C 202.95118,13.100198 201.0999,12.198307 199.12,12.08 v 0 c -0.33307,-0.01885 -0.66693,-0.01885 -1,0 -2.1588,-0.05424 -4.24505,0.780983 -5.77,2.31 -1.4847,1.560778 -2.2902,3.646433 -2.24,5.8 -0.0786,2.238727 0.81044,4.402923 2.44,5.94 3.38774,2.671233 8.21331,2.489056 11.39,-0.43 1.42945,-1.54685 2.19122,-3.595008 2.12,-5.7 z m -3.42,0.07 c 0,3.4 -2,5.34 -4.6,5.34 -2.6,0 -4.64,-1.94 -4.64,-5.34 0,-3.4 1.92,-5.35 4.61,-5.35 2.69,0 4.6,2 4.6,5.35 z"
               id="path40" />
            <polygon
               fill-rule="nonzero"
               points="209.08,12.24 209.08,27.75 212.32,27.75 212.32,21.2 217.23,21.2 217.22,18.56 212.32,18.56 212.32,14.88 217.28,14.88 218.11,12.24 "
               id="polygon42" />
            <polygon
               fill-rule="nonzero"
               points="234.6,25.07 229.16,25.07 229.16,12.27 225.95,12.27 225.95,27.73 234.6,27.73 "
               id="polygon44" />
            <polygon
               fill-rule="nonzero"
               points="245.68,25.09 239.94,25.09 239.94,21.15 244.86,21.15 244.86,18.5 239.94,18.5 239.94,14.89 244.84,14.89 245.7,12.27 236.71,12.27 236.71,27.73 245.68,27.73 "
               id="polygon46" />
            <polygon
               fill-rule="nonzero"
               points="257.43,25.09 251.69,25.09 251.69,21.15 256.62,21.15 256.62,18.5 251.69,18.5 251.69,14.89 256.59,14.89 257.43,12.27 248.46,12.27 248.46,27.73 257.43,27.73 "
               id="polygon48" />
            <path
               d="m 273.98,19.86 c 0,-4.62 -3.1,-7.59 -8.62,-7.59 h -5.15 v 15.46 h 4.89 c 5.37,0 8.91,-3.1 8.91,-7.86 z m -3.45,0.09 c 0,2.71 -1.5,5.12 -5.33,5.12 h -1.77 V 14.93 h 1.71 c 3.55,0 5.39,1.98 5.39,5.07 z"
               id="path50" />
            <path
               d="m 285.62,23.37 c 0,-4.9 -6.66,-4.64 -6.66,-7.31 0,-0.9 0.89,-1.42 2.05,-1.42 1.30226,0.06074 2.56807,0.449427 3.68,1.13 V 13 c -1.19044,-0.668012 -2.535,-1.012772 -3.9,-1 -3.41,0 -5.27,2.07 -5.27,4.41 -0.0168,1.011575 0.3391,1.993987 1,2.76 1.88,2.14 5.64,2.45 5.64,4.54 0,1.17 -1.28,1.63 -2.4,1.63 -1.26392,-0.05658 -2.48236,-0.48826 -3.5,-1.24 l -1.25,2.32 c 1.46073,0.975904 3.18345,1.485048 4.94,1.46 3.2,0.06 5.67,-1.7 5.67,-4.51 z"
               fill-rule="nonzero"
               id="path52" />
          </g>
        </g>
      </g>
    </pattern>
    <pattern
       patternUnits="userSpaceOnUse"
       width="285.62"
       height="40"
       id="pattern249">
      <rect
         style="fill:url(#pattern252);stroke:none;image-rendering:auto"
         width="285.62"
         height="40"
         x="0"
         y="0"
         id="rect247" />
    </pattern>
    <clipPath
       clipPathUnits="userSpaceOnUse"
       id="clipPath312">
      <rect
         style="fill:none"
         id="rect314"
         width="40"
         height="40"
         x="0"
         y="0" />
    </clipPath>
  </defs>
  <sodipodi:namedview
     id="namedview62"
     pagecolor="#ffffff"
     bordercolor="#000000"
     borderopacity="0.25"
     inkscape:showpageshadow="2"
     inkscape:pageopacity="0.0"
     inkscape:pagecheckerboard="0"
     inkscape:deskcolor="#d1d1d1"
     showgrid="false" />
  <rect
     style="fill:url(#pattern249);stroke:none"
     width="285.62"
     height="40"
     x="0"
     y="0"
     id="rect254"
     clip-path="url(#clipPath312)" />
</svg>
